G04*
G04 #@! TF.GenerationSoftware,Altium Limited,Altium Designer,21.6.4 (81)*
G04*
G04 Layer_Color=65535*
%FSLAX44Y44*%
%MOMM*%
G71*
G04*
G04 #@! TF.SameCoordinates,9B3D00D5-71B9-47E7-A398-83BAF539578A*
G04*
G04*
G04 #@! TF.FilePolarity,Positive*
G04*
G01*
G75*
%ADD10C,0.2000*%
%ADD11C,0.2540*%
%ADD12C,0.1500*%
G36*
X1551694Y924439D02*
X1551771Y924155D01*
X1551642Y923820D01*
X1551539Y923717D01*
X1551178Y923613D01*
X1550275Y923639D01*
X1550198Y923613D01*
X1550043Y923665D01*
X1549475Y923613D01*
X1549243Y923433D01*
X1549192Y923226D01*
X1549217Y922478D01*
X1549192Y916777D01*
X1549243Y916622D01*
X1549192Y916003D01*
X1548960Y915720D01*
X1548727Y915694D01*
X1548521Y915745D01*
X1548418Y915849D01*
X1548366Y916210D01*
Y919667D01*
Y919718D01*
X1548315Y923484D01*
X1548186Y923613D01*
X1547979Y923665D01*
X1547437Y923639D01*
X1546586Y923665D01*
X1546431Y923613D01*
X1546070Y923665D01*
X1545890Y923794D01*
X1545786Y924155D01*
X1545864Y924439D01*
X1546019Y924594D01*
X1546380Y924645D01*
X1549037Y924620D01*
X1551333Y924645D01*
X1551694Y924439D01*
D02*
G37*
G36*
X1538176Y924594D02*
X1538409Y924413D01*
X1538460Y924052D01*
X1538305Y923794D01*
X1538228Y923717D01*
X1537867Y923613D01*
X1536267Y923665D01*
X1535365Y923639D01*
X1534823Y923665D01*
X1534642Y923484D01*
X1534591Y923278D01*
X1534616Y922427D01*
X1534591Y922195D01*
X1534642Y922040D01*
X1534591Y921214D01*
X1534720Y920879D01*
X1534978Y920776D01*
X1535803Y920827D01*
X1537093Y920776D01*
X1537609Y920827D01*
X1537970Y920776D01*
X1538073Y920673D01*
X1538151Y920647D01*
X1538254Y920389D01*
X1538202Y920079D01*
X1538022Y919899D01*
X1537815Y919847D01*
X1535081Y919899D01*
X1535029D01*
X1534823Y919847D01*
X1534694Y919770D01*
X1534591Y919409D01*
X1534616Y918454D01*
X1534591Y918170D01*
X1534642Y918016D01*
X1534616Y916958D01*
X1534694Y916777D01*
X1534771Y916700D01*
X1534978Y916648D01*
X1535493Y916700D01*
X1538228Y916648D01*
X1538409Y916468D01*
X1538460Y916261D01*
X1538383Y915978D01*
X1538228Y915771D01*
X1537815Y915668D01*
X1536990Y915720D01*
X1534178Y915694D01*
X1533997Y915771D01*
X1533817Y915952D01*
X1533765Y916468D01*
X1533817Y924413D01*
X1533946Y924542D01*
X1534358Y924645D01*
X1538176Y924594D01*
D02*
G37*
G36*
X1542665Y919796D02*
X1542794Y919460D01*
X1542717Y919176D01*
X1542562Y919022D01*
X1542459Y918970D01*
X1542407D01*
X1542046Y918918D01*
X1541685Y918970D01*
X1539569Y919022D01*
X1539440Y919151D01*
X1539389Y919512D01*
X1539518Y919847D01*
X1539621Y919950D01*
X1539982Y920002D01*
X1540421Y919976D01*
X1541272Y920002D01*
X1541427Y919950D01*
X1542304Y920002D01*
X1542665Y919796D01*
D02*
G37*
G36*
X1532191Y924594D02*
X1532449Y924439D01*
X1532527Y924362D01*
X1532578Y924000D01*
X1532527Y915900D01*
X1532346Y915720D01*
X1531882Y915771D01*
X1531753Y915900D01*
X1531650Y916313D01*
X1531701Y917293D01*
X1531676Y920724D01*
X1531701Y922453D01*
X1531572Y922633D01*
X1531314Y922478D01*
X1531185Y922143D01*
X1531082Y921730D01*
X1531005Y921447D01*
X1530953Y921240D01*
X1530773Y920802D01*
X1530670Y920389D01*
X1530592Y920105D01*
X1530334Y919538D01*
X1530102Y918789D01*
X1529921Y918299D01*
X1529792Y917964D01*
X1529638Y917448D01*
X1529457Y916958D01*
X1529328Y916674D01*
X1529173Y916158D01*
X1528967Y915797D01*
X1528735Y915720D01*
X1528503Y915849D01*
X1528477Y915874D01*
X1528348Y916003D01*
X1528245Y916261D01*
X1528141Y916622D01*
X1527909Y917267D01*
X1527625Y917912D01*
X1527548Y918196D01*
X1527496Y918402D01*
X1527290Y918970D01*
X1527110Y919409D01*
X1527032Y919692D01*
X1526980Y919899D01*
X1526774Y920466D01*
X1526645Y920802D01*
X1526542Y921163D01*
X1526490Y921369D01*
X1526310Y921859D01*
X1525949Y922891D01*
X1525897Y922994D01*
X1525794Y922943D01*
X1525717Y922865D01*
X1525665Y922195D01*
X1525717Y921060D01*
X1525768Y920544D01*
X1525717Y920389D01*
X1525665Y915849D01*
X1525536Y915720D01*
X1525329Y915668D01*
X1525072Y915771D01*
X1524943Y916055D01*
X1524891Y916416D01*
X1524943Y916932D01*
X1524891Y917758D01*
X1524943Y924310D01*
X1525123Y924542D01*
X1525484Y924645D01*
X1526000Y924594D01*
X1526103Y924491D01*
X1526207Y924439D01*
X1526439Y924052D01*
X1526542Y923794D01*
X1526645Y923433D01*
X1526748Y923020D01*
X1527058Y922349D01*
X1527213Y921730D01*
X1527393Y921240D01*
X1527574Y920802D01*
X1527625Y920595D01*
X1527729Y920234D01*
X1527858Y919899D01*
X1527961Y919641D01*
X1528090Y919357D01*
X1528141Y919151D01*
X1528245Y918789D01*
X1528296Y918583D01*
X1528528Y917938D01*
X1528683Y917680D01*
X1528838Y917629D01*
X1528967Y917758D01*
X1529070Y918170D01*
X1529147Y918506D01*
X1529302Y918918D01*
X1529483Y919512D01*
X1529586Y919873D01*
X1529715Y920208D01*
X1529844Y920492D01*
X1529947Y920750D01*
X1530025Y921085D01*
X1530076Y921292D01*
X1530282Y921808D01*
X1530412Y922143D01*
X1530489Y922478D01*
X1530592Y922891D01*
X1530695Y923149D01*
X1530979Y923794D01*
X1531031Y924000D01*
X1531160Y924336D01*
X1531263Y924491D01*
X1531521Y924594D01*
X1532037Y924645D01*
X1532191Y924594D01*
D02*
G37*
G36*
X1544729Y924542D02*
X1544806Y924465D01*
X1544909Y924207D01*
X1544858Y923381D01*
X1544909Y923226D01*
X1544858Y923020D01*
Y918273D01*
Y918222D01*
X1544884Y916132D01*
X1544780Y915874D01*
X1544626Y915720D01*
X1544161Y915771D01*
X1544032Y915900D01*
X1543981Y916261D01*
X1543955Y919950D01*
X1544007Y924336D01*
X1544135Y924516D01*
X1544419Y924594D01*
X1544729Y924542D01*
D02*
G37*
G36*
X1556079Y924594D02*
X1556234Y924542D01*
X1556518Y924465D01*
X1556802Y924284D01*
X1557292Y923949D01*
X1557343Y923846D01*
X1557447Y923691D01*
X1557472Y923665D01*
X1557756Y923020D01*
X1557808Y922349D01*
X1557756Y921421D01*
X1557343Y920544D01*
X1557395Y920286D01*
X1557808Y919873D01*
X1557911Y919615D01*
X1558066Y919099D01*
X1558117Y918893D01*
X1558169Y918377D01*
X1558117Y917654D01*
X1558066Y917500D01*
X1557988Y917216D01*
X1557834Y916803D01*
X1557653Y916519D01*
X1557447Y916313D01*
X1557421Y916236D01*
X1557318Y916184D01*
X1557215Y916081D01*
X1556750Y915874D01*
X1556389Y915771D01*
X1556028Y915720D01*
X1553010Y915694D01*
X1552829Y915823D01*
X1552752Y915900D01*
X1552700Y916107D01*
X1552648Y917396D01*
X1552674Y920931D01*
X1552648Y923433D01*
X1552700Y923588D01*
X1552648Y924104D01*
X1552726Y924387D01*
X1552829Y924542D01*
X1553242Y924645D01*
X1556079Y924594D01*
D02*
G37*
G36*
X1519164Y924465D02*
X1519216Y924104D01*
X1519267Y920956D01*
X1519345Y920827D01*
X1519551Y920776D01*
X1520299Y920802D01*
X1521460Y920776D01*
X1521615Y920827D01*
X1522440Y920776D01*
X1522698Y920879D01*
X1522827Y921008D01*
X1522879Y921369D01*
X1522827Y922504D01*
X1522853Y923768D01*
X1522827Y924258D01*
X1523008Y924542D01*
X1523214Y924594D01*
X1523575Y924542D01*
X1523653Y924465D01*
X1523704Y924258D01*
X1523756Y923949D01*
X1523704Y923794D01*
X1523653Y915849D01*
X1523524Y915720D01*
X1523266Y915668D01*
X1522930Y915849D01*
X1522827Y916210D01*
X1522853Y917164D01*
X1522827Y918686D01*
Y918738D01*
X1522879Y919099D01*
X1522827Y919615D01*
X1522647Y919796D01*
X1522285Y919847D01*
X1521512Y919796D01*
X1521357Y919847D01*
X1519938Y919821D01*
X1519448Y919847D01*
X1519319Y919770D01*
X1519216Y919512D01*
X1519164Y915900D01*
X1519087Y915771D01*
X1518829Y915668D01*
X1518622Y915720D01*
X1518519Y915771D01*
X1518390Y915900D01*
X1518287Y916313D01*
X1518339Y917758D01*
X1518313Y924233D01*
X1518416Y924491D01*
X1518519Y924542D01*
X1518829Y924645D01*
X1519164Y924465D01*
D02*
G37*
G36*
X1578239Y1003248D02*
X1578316Y1002810D01*
X1578368Y1002604D01*
X1578419Y1000075D01*
X1578445Y984623D01*
X1578394Y984468D01*
Y977968D01*
Y977916D01*
X1578419Y975156D01*
X1578394Y974923D01*
X1578445Y974769D01*
X1578419Y971492D01*
X1578445Y966823D01*
X1578394Y966668D01*
X1578419Y963702D01*
X1578394Y963470D01*
X1578445Y963315D01*
X1578419Y956891D01*
X1578445Y956040D01*
X1578394Y955885D01*
X1578445Y955215D01*
X1578419Y940536D01*
X1578445Y933494D01*
X1578394Y933339D01*
X1578342Y932565D01*
X1578291Y932410D01*
X1578187Y931533D01*
X1578136Y930553D01*
X1578084Y930192D01*
X1578007Y929753D01*
X1577955Y929547D01*
X1577852Y929289D01*
X1577671Y928695D01*
X1577620Y928334D01*
X1577491Y927793D01*
X1577259Y927406D01*
X1577181Y927070D01*
X1577130Y926761D01*
X1577078Y926503D01*
X1576975Y926245D01*
X1576743Y925858D01*
X1576588Y925342D01*
X1576124Y924362D01*
X1576046Y924078D01*
X1575840Y923768D01*
X1575762Y923691D01*
X1575659Y923433D01*
X1575530Y923098D01*
X1575350Y922865D01*
X1575298Y922762D01*
X1574937Y922091D01*
X1574782Y921937D01*
X1574421Y921266D01*
X1574266Y921111D01*
X1574215Y921008D01*
X1574008Y920647D01*
X1573802Y920440D01*
X1573750Y920337D01*
X1573415Y919847D01*
X1573234Y919667D01*
X1573028Y919305D01*
X1572718Y918996D01*
X1572667Y918893D01*
X1572435Y918609D01*
X1572151Y918325D01*
X1572099Y918222D01*
X1571687Y917809D01*
X1571635Y917706D01*
X1571274Y917345D01*
X1571222Y917242D01*
X1570938Y916958D01*
X1570861Y916932D01*
X1570809Y916829D01*
X1570706Y916726D01*
X1570655Y916622D01*
X1570113Y916081D01*
X1570010Y916029D01*
X1569778Y915849D01*
X1569726Y915745D01*
X1569494Y915513D01*
X1569391Y915462D01*
X1569029Y915100D01*
X1568926Y915049D01*
X1568565Y914688D01*
X1568462Y914636D01*
X1568359Y914533D01*
X1568255Y914481D01*
X1568127Y914301D01*
X1568049Y914223D01*
X1567946Y914172D01*
X1567662Y913940D01*
X1567430Y913707D01*
X1567327Y913656D01*
X1567224Y913553D01*
X1567121Y913501D01*
X1566837Y913269D01*
X1566450Y913037D01*
X1566347Y912985D01*
X1566089Y912727D01*
X1565624Y912469D01*
X1565470Y912314D01*
X1565366Y912263D01*
X1564799Y911953D01*
X1564696Y911850D01*
X1564592Y911798D01*
X1564489Y911695D01*
X1564128Y911489D01*
X1563973Y911334D01*
X1563870Y911283D01*
X1563612Y911179D01*
X1563277Y911050D01*
X1562993Y910767D01*
X1562735Y910663D01*
X1562271Y910405D01*
X1562168Y910302D01*
X1561909Y910199D01*
X1561703Y910147D01*
X1561342Y909941D01*
X1561187Y909786D01*
X1560929Y909683D01*
X1560594Y909554D01*
X1560413Y909425D01*
X1560310Y909322D01*
X1560052Y909219D01*
X1559717Y909141D01*
X1559459Y909038D01*
X1559227Y908806D01*
X1558866Y908703D01*
X1558401Y908600D01*
X1558246Y908445D01*
X1558143Y908393D01*
X1557782Y908239D01*
X1557421Y908187D01*
X1557086Y908058D01*
X1556750Y907826D01*
X1556389Y907723D01*
X1555976Y907671D01*
X1555409Y907310D01*
X1555202Y907258D01*
X1554325Y907155D01*
X1553964Y906949D01*
X1553603Y906794D01*
X1553242Y906742D01*
X1552158Y906691D01*
X1552003Y906639D01*
X1551668Y906613D01*
X1551849Y906742D01*
X1552107Y907000D01*
X1552442Y907078D01*
X1552700Y907129D01*
X1553526Y907336D01*
X1553938Y907490D01*
X1554222Y907619D01*
X1554557Y907697D01*
X1554841Y907774D01*
X1555331Y907955D01*
X1555615Y908084D01*
X1555873Y908187D01*
X1556157Y908264D01*
X1556570Y908419D01*
X1557215Y908703D01*
X1557859Y908935D01*
X1558195Y909116D01*
X1558453Y909219D01*
X1558788Y909348D01*
X1559846Y909838D01*
X1560310Y910096D01*
X1560671Y910251D01*
X1561136Y910509D01*
X1561497Y910715D01*
X1562064Y911025D01*
X1562838Y911437D01*
X1562941Y911541D01*
X1563045Y911592D01*
X1563612Y911902D01*
X1563973Y912160D01*
X1564438Y912418D01*
X1564592Y912572D01*
X1564696Y912624D01*
X1565341Y913063D01*
X1565908Y913424D01*
X1566089Y913604D01*
X1566192Y913656D01*
X1566553Y913914D01*
X1566759Y914120D01*
X1566862Y914172D01*
X1567507Y914662D01*
X1567585Y914739D01*
X1567688Y914791D01*
X1567998Y915100D01*
X1568101Y915152D01*
X1568255Y915307D01*
X1568359Y915358D01*
X1568772Y915771D01*
X1568875Y915823D01*
X1569339Y916287D01*
X1569442Y916339D01*
X1569520Y916416D01*
X1569571Y916519D01*
X1569752Y916700D01*
X1569855Y916751D01*
X1570087Y916984D01*
X1570139Y917087D01*
X1570268Y917216D01*
X1570371Y917267D01*
X1570551Y917448D01*
X1570603Y917551D01*
X1571067Y918016D01*
X1571119Y918119D01*
X1571532Y918531D01*
X1571583Y918635D01*
X1571944Y918996D01*
X1571996Y919099D01*
X1572099Y919202D01*
X1572151Y919305D01*
X1572357Y919512D01*
X1572409Y919615D01*
X1572512Y919718D01*
X1572564Y919821D01*
X1572667Y919924D01*
X1572718Y920028D01*
X1572873Y920182D01*
X1572925Y920286D01*
X1573028Y920389D01*
X1573234Y920750D01*
X1573441Y920956D01*
X1573492Y921060D01*
X1573828Y921550D01*
X1574060Y921937D01*
X1574266Y922298D01*
X1574369Y922401D01*
X1574782Y923175D01*
X1574989Y923484D01*
X1575117Y923820D01*
X1575504Y924568D01*
X1575633Y924903D01*
X1575866Y925342D01*
X1576020Y925703D01*
X1576072Y925909D01*
X1576201Y926245D01*
X1576433Y926786D01*
X1576510Y927122D01*
X1576562Y927328D01*
X1576717Y927741D01*
X1576846Y928025D01*
X1576949Y928438D01*
X1577027Y928928D01*
X1577078Y929186D01*
X1577181Y929598D01*
X1577310Y930037D01*
X1577362Y930243D01*
X1577413Y930604D01*
X1577465Y930811D01*
X1577542Y931868D01*
X1577594Y932488D01*
X1577646Y932952D01*
X1577671Y938344D01*
X1577439Y938627D01*
X1577233Y938679D01*
X1576717Y938627D01*
X1546251Y938653D01*
X1545993Y938601D01*
X1545915Y938524D01*
X1545838Y938498D01*
X1545735Y938137D01*
X1545786Y936693D01*
X1545735Y930656D01*
X1545658Y930527D01*
X1545554Y930475D01*
X1545296Y930372D01*
X1543594Y930424D01*
X1543413Y930604D01*
X1543362Y930966D01*
X1543387Y937183D01*
X1543336Y937389D01*
X1543233Y937492D01*
X1542923Y937441D01*
X1542820Y937337D01*
X1542717Y937286D01*
X1542613Y937183D01*
X1542510Y937131D01*
X1542149Y936873D01*
X1541478Y936512D01*
X1541014Y936254D01*
X1540446Y935893D01*
X1539982Y935635D01*
X1539673Y935428D01*
X1539105Y935119D01*
X1539002Y935016D01*
X1538899Y934964D01*
X1538434Y934706D01*
X1538125Y934500D01*
X1538022Y934448D01*
X1537557Y934190D01*
X1537196Y933932D01*
X1536629Y933623D01*
X1536267Y933416D01*
X1536164Y933365D01*
X1535339Y932849D01*
X1534978Y932642D01*
X1534668Y932436D01*
X1534100Y932126D01*
X1533997Y932023D01*
X1533327Y931662D01*
X1532965Y931404D01*
X1532811Y931352D01*
X1532037Y930888D01*
X1531933Y930837D01*
X1531650Y930604D01*
X1531314Y930424D01*
X1531108Y930372D01*
X1530953Y930321D01*
X1530721Y930501D01*
X1530695Y930837D01*
X1530747Y937956D01*
X1530773Y938034D01*
X1530721Y938189D01*
X1530670Y938447D01*
X1530540Y938576D01*
X1530128Y938679D01*
X1529973Y938627D01*
X1499146Y938653D01*
X1498888Y938498D01*
X1498785Y938137D01*
X1498836Y937260D01*
X1498785Y937105D01*
X1498836Y933339D01*
X1498888Y932101D01*
X1498939Y931946D01*
X1499017Y930888D01*
X1499068Y930475D01*
X1499275Y929650D01*
X1499352Y929366D01*
X1499404Y929160D01*
X1499507Y928541D01*
X1499558Y928334D01*
X1499636Y928051D01*
X1499739Y927793D01*
X1499868Y927509D01*
X1499971Y927148D01*
X1500049Y926812D01*
X1500152Y926554D01*
X1500436Y925909D01*
X1500487Y925703D01*
X1500642Y925290D01*
X1500848Y924981D01*
X1501080Y924336D01*
X1501261Y924052D01*
X1501467Y923588D01*
X1501674Y923226D01*
X1501880Y922917D01*
X1502190Y922349D01*
X1502396Y922040D01*
X1502654Y921575D01*
X1503015Y921060D01*
X1503067Y920956D01*
X1503299Y920673D01*
X1503376Y920595D01*
X1503583Y920234D01*
X1503789Y920028D01*
X1503841Y919924D01*
X1503944Y919821D01*
X1503996Y919718D01*
X1504228Y919434D01*
X1504305Y919357D01*
X1504357Y919254D01*
X1504460Y919151D01*
X1504511Y919047D01*
X1504873Y918686D01*
X1504924Y918583D01*
X1505079Y918428D01*
X1505131Y918325D01*
X1505208Y918248D01*
X1505311Y918196D01*
X1505440Y918016D01*
X1505621Y917783D01*
X1505724Y917732D01*
X1505853Y917603D01*
X1505905Y917500D01*
X1507168Y916236D01*
X1507272Y916184D01*
X1507736Y915720D01*
X1507839Y915668D01*
X1508252Y915255D01*
X1508355Y915204D01*
X1508665Y914894D01*
X1508768Y914843D01*
X1508974Y914636D01*
X1509077Y914585D01*
X1509284Y914378D01*
X1509387Y914327D01*
X1510032Y913836D01*
X1510109Y913759D01*
X1510213Y913707D01*
X1510496Y913475D01*
X1510677Y913346D01*
X1511167Y913011D01*
X1511477Y912805D01*
X1511889Y912547D01*
X1512018Y912418D01*
X1512121Y912366D01*
X1512483Y912160D01*
X1512844Y911902D01*
X1512947Y911850D01*
X1513515Y911541D01*
X1513618Y911437D01*
X1514392Y911025D01*
X1514701Y910818D01*
X1514908Y910767D01*
X1515269Y910560D01*
X1515372Y910457D01*
X1515475Y910405D01*
X1515836Y910251D01*
X1516172Y910122D01*
X1516249Y910044D01*
X1516352Y909993D01*
X1516817Y909786D01*
X1517152Y909657D01*
X1517462Y909451D01*
X1517745Y909322D01*
X1518235Y909141D01*
X1518983Y908806D01*
X1519628Y908574D01*
X1519964Y908393D01*
X1520480Y908239D01*
X1520970Y908058D01*
X1521512Y907826D01*
X1521795Y907748D01*
X1522053Y907697D01*
X1522466Y907542D01*
X1522750Y907413D01*
X1523111Y907310D01*
X1523704Y907181D01*
X1524581Y906871D01*
X1524814Y906794D01*
X1525020Y906742D01*
X1525459Y906665D01*
X1525665Y906613D01*
X1526232Y906459D01*
X1526336Y906407D01*
X1526310Y906330D01*
X1524814Y906278D01*
X1524659Y906330D01*
X1524375Y906407D01*
X1523833Y906639D01*
X1523627Y906691D01*
X1522801Y906742D01*
X1522027Y907103D01*
X1521821Y907155D01*
X1521460Y907207D01*
X1521254Y907258D01*
X1520970Y907336D01*
X1520789Y907465D01*
X1520325Y907671D01*
X1519783Y907800D01*
X1519499Y907981D01*
X1519138Y908135D01*
X1518932Y908187D01*
X1518545Y908264D01*
X1518364Y908342D01*
X1518003Y908600D01*
X1517410Y908729D01*
X1517229Y908806D01*
X1516868Y909064D01*
X1516507Y909167D01*
X1516172Y909296D01*
X1516043Y909425D01*
X1515939Y909477D01*
X1515475Y909683D01*
X1515011Y909941D01*
X1514443Y910199D01*
X1514340Y910251D01*
X1513979Y910509D01*
X1513876Y910560D01*
X1513308Y910870D01*
X1513153Y911025D01*
X1512895Y911128D01*
X1512560Y911257D01*
X1512328Y911489D01*
X1512225Y911541D01*
X1511864Y911747D01*
X1511580Y911979D01*
X1511502Y912056D01*
X1511038Y912314D01*
X1510832Y912521D01*
X1510728Y912572D01*
X1510367Y912779D01*
X1510161Y912985D01*
X1510058Y913037D01*
X1509568Y913372D01*
X1509490Y913449D01*
X1509387Y913501D01*
X1508923Y913862D01*
X1508716Y914069D01*
X1508613Y914120D01*
X1508329Y914352D01*
X1508097Y914585D01*
X1507994Y914636D01*
X1507633Y914997D01*
X1507530Y915049D01*
X1507426Y915152D01*
X1507323Y915204D01*
X1507014Y915513D01*
X1506911Y915565D01*
X1506730Y915745D01*
X1506678Y915849D01*
X1506549Y915978D01*
X1506446Y916029D01*
X1506343Y916132D01*
X1506240Y916184D01*
X1505801Y916622D01*
X1505750Y916726D01*
X1505569Y916958D01*
X1505466Y917009D01*
X1505182Y917293D01*
X1505131Y917396D01*
X1504821Y917706D01*
X1504769Y917809D01*
X1504305Y918273D01*
X1504254Y918377D01*
X1503892Y918738D01*
X1503841Y918841D01*
X1503609Y919125D01*
X1503428Y919305D01*
X1503376Y919409D01*
X1503118Y919770D01*
X1502964Y919924D01*
X1502912Y920028D01*
X1502706Y920389D01*
X1502448Y920647D01*
X1502190Y921111D01*
X1501983Y921318D01*
X1501932Y921421D01*
X1501622Y921988D01*
X1501519Y922091D01*
X1501467Y922195D01*
X1501158Y922762D01*
X1500952Y923072D01*
X1500771Y923562D01*
X1500590Y923846D01*
X1500436Y924104D01*
X1500229Y924671D01*
X1499971Y925032D01*
X1499894Y925316D01*
X1499842Y925574D01*
X1499791Y925780D01*
X1499687Y926038D01*
X1499558Y926167D01*
X1499455Y926425D01*
X1499352Y926838D01*
X1499275Y927225D01*
X1499171Y927483D01*
X1498939Y928025D01*
X1498888Y928386D01*
X1498836Y929057D01*
X1498733Y929315D01*
X1498475Y929985D01*
X1498423Y930501D01*
X1498320Y931843D01*
X1498269Y932049D01*
X1498191Y932591D01*
X1498140Y933003D01*
X1498088Y933519D01*
X1498036Y936460D01*
X1498011Y956143D01*
X1498062Y956298D01*
X1498114Y1002939D01*
X1498165Y1003094D01*
X1498191Y1003274D01*
X1578239Y1003248D01*
D02*
G37*
G36*
X1527393Y906072D02*
X1527471Y905994D01*
X1527187Y905917D01*
X1527135Y905968D01*
X1527084D01*
X1526903Y906046D01*
X1526929Y906123D01*
X1527393Y906072D01*
D02*
G37*
G36*
X1531392Y905478D02*
X1531366Y905452D01*
X1531340Y905478D01*
X1531366Y905504D01*
X1531392Y905478D01*
D02*
G37*
G36*
X1528631Y905968D02*
X1528889Y905865D01*
X1529509Y905710D01*
X1530025Y905659D01*
X1530644Y905607D01*
X1530747Y905556D01*
X1530798D01*
X1531185Y905478D01*
X1530902Y905401D01*
X1530257Y905375D01*
X1529173Y905427D01*
X1528915Y905530D01*
X1528838Y905607D01*
X1528735Y905659D01*
X1528374Y905814D01*
X1528141Y905943D01*
X1528219Y906020D01*
X1528631Y905968D01*
D02*
G37*
G36*
X1545245Y905504D02*
X1545271Y905478D01*
X1545193Y905401D01*
X1544935Y905349D01*
X1544884D01*
X1544497Y905427D01*
X1544522Y905504D01*
X1544729Y905556D01*
X1545245Y905504D01*
D02*
G37*
%LPC*%
G36*
X1555718Y923613D02*
X1553603Y923562D01*
X1553474Y923278D01*
X1553500Y922582D01*
X1553474Y921214D01*
X1553629Y920956D01*
X1553706Y920879D01*
X1556131Y920931D01*
X1556286Y920982D01*
X1556647Y921189D01*
X1556828Y921627D01*
X1556879Y921833D01*
X1556931Y922349D01*
X1556879Y922504D01*
X1556828Y922917D01*
X1556621Y923278D01*
X1556492Y923407D01*
X1556441D01*
X1556415Y923433D01*
X1556079Y923562D01*
X1555718Y923613D01*
D02*
G37*
G36*
X1556131Y919899D02*
X1553603Y919847D01*
X1553474Y919563D01*
X1553526Y916880D01*
X1553654Y916751D01*
X1553861Y916700D01*
X1554480D01*
X1554712Y916726D01*
X1556028Y916700D01*
X1556183Y916751D01*
X1556595Y916803D01*
X1556698Y916906D01*
X1556802Y916958D01*
X1557137Y917293D01*
X1557240Y917654D01*
X1557292Y918170D01*
X1557240Y919099D01*
X1557034Y919460D01*
X1556853Y919589D01*
X1556544Y919796D01*
X1556131Y919899D01*
D02*
G37*
G36*
X1577233Y1002397D02*
X1576717Y1002346D01*
X1499146Y1002371D01*
X1498862Y1002191D01*
X1498785Y1001959D01*
X1498836Y1000978D01*
X1498810Y970099D01*
X1498836Y963624D01*
X1498785Y963470D01*
X1498810Y958594D01*
X1498785Y957485D01*
X1498836Y957330D01*
X1498785Y956453D01*
X1498965Y956169D01*
X1499326Y956066D01*
X1499481Y956117D01*
X1530540Y956169D01*
X1530670Y956298D01*
X1530773Y956556D01*
X1530721Y957227D01*
X1530773Y964347D01*
X1530850Y964424D01*
X1531263Y964372D01*
X1531624Y964166D01*
X1531908Y963934D01*
X1532707Y963495D01*
X1533017Y963289D01*
X1533481Y963031D01*
X1533791Y962825D01*
X1534255Y962567D01*
X1534616Y962309D01*
X1535287Y961948D01*
X1535597Y961741D01*
X1536061Y961483D01*
X1536371Y961277D01*
X1536835Y961019D01*
X1537557Y960606D01*
X1537660Y960503D01*
X1537764Y960451D01*
X1538331Y960142D01*
X1538692Y959884D01*
X1539363Y959523D01*
X1539673Y959316D01*
X1540137Y959058D01*
X1540498Y958800D01*
X1541169Y958439D01*
X1541633Y958181D01*
X1541994Y957923D01*
X1542097Y957872D01*
X1542562Y957614D01*
X1542846Y957382D01*
X1543078Y957253D01*
X1543284Y957304D01*
X1543362Y957382D01*
X1543413Y957691D01*
X1543362Y957846D01*
X1543413Y964089D01*
X1543594Y964269D01*
X1543800Y964321D01*
X1545167Y964347D01*
X1545425Y964295D01*
X1545606Y964166D01*
X1545735Y964037D01*
X1545786Y963831D01*
X1545761Y963031D01*
X1545786Y956969D01*
X1545735Y956814D01*
X1545786Y956350D01*
X1545967Y956169D01*
X1546173Y956117D01*
X1577310Y956092D01*
X1577491Y956169D01*
X1577671Y956350D01*
X1577723Y956711D01*
X1577671Y956917D01*
Y979464D01*
Y979515D01*
X1577697Y1001984D01*
X1577620Y1002165D01*
X1577439Y1002346D01*
X1577233Y1002397D01*
D02*
G37*
G36*
X1544574Y963495D02*
X1544368Y963444D01*
X1544290Y963366D01*
X1544239Y963160D01*
X1544264Y956169D01*
X1544213Y955911D01*
X1544110Y955808D01*
X1543697Y955860D01*
X1542975Y956376D01*
X1542871Y956427D01*
X1542149Y956840D01*
X1541839Y957046D01*
X1541375Y957304D01*
X1541014Y957562D01*
X1540446Y957872D01*
X1540137Y958078D01*
X1539569Y958388D01*
X1539260Y958594D01*
X1538795Y958852D01*
X1538486Y959058D01*
X1537918Y959368D01*
X1537609Y959574D01*
X1537144Y959832D01*
X1536835Y960039D01*
X1536267Y960348D01*
X1536164Y960451D01*
X1536061Y960503D01*
X1535597Y960761D01*
X1535287Y960967D01*
X1535184Y961019D01*
X1534720Y961277D01*
X1534358Y961535D01*
X1533791Y961844D01*
X1533688Y961948D01*
X1532914Y962360D01*
X1532604Y962567D01*
X1532243Y962773D01*
X1532088Y962928D01*
X1531882Y962980D01*
X1531676Y962928D01*
X1531598Y962696D01*
X1531650Y961715D01*
X1531598Y955473D01*
X1531469Y955292D01*
X1531056Y955189D01*
X1499146Y955215D01*
X1498965Y955137D01*
X1498836Y955008D01*
X1498785Y954802D01*
X1498836Y954131D01*
X1498810Y939762D01*
X1498914Y939556D01*
X1499275Y939453D01*
X1499791Y939504D01*
X1531366Y939453D01*
X1531547Y939324D01*
X1531650Y938911D01*
X1531598Y938447D01*
X1531650Y938292D01*
X1531624Y932023D01*
X1531701Y931843D01*
X1531779Y931765D01*
X1531985Y931817D01*
X1532346Y932075D01*
X1532707Y932281D01*
X1533017Y932488D01*
X1533120Y932539D01*
X1533481Y932746D01*
X1533791Y932952D01*
X1534255Y933210D01*
X1534565Y933416D01*
X1535132Y933726D01*
X1535235Y933829D01*
X1536009Y934242D01*
X1536113Y934345D01*
X1536783Y934706D01*
X1537144Y934964D01*
X1537712Y935274D01*
X1538022Y935480D01*
X1538486Y935738D01*
X1538795Y935944D01*
X1539260Y936202D01*
X1539569Y936409D01*
X1539673Y936460D01*
X1540137Y936718D01*
X1540240Y936821D01*
X1540911Y937183D01*
X1541220Y937389D01*
X1541685Y937647D01*
X1541994Y937853D01*
X1542459Y938111D01*
X1542768Y938318D01*
X1543336Y938627D01*
X1543542Y938834D01*
X1543903Y938937D01*
X1544161Y938885D01*
X1544239Y938808D01*
X1544290Y938447D01*
X1544239Y938085D01*
Y935196D01*
Y935145D01*
X1544290Y931430D01*
X1544368Y931301D01*
X1544574Y931249D01*
X1544729Y931301D01*
X1544858Y931430D01*
X1544909Y931636D01*
X1544961Y939324D01*
X1545090Y939453D01*
X1545606Y939504D01*
X1577362Y939479D01*
X1577542Y939556D01*
X1577671Y939685D01*
X1577697Y954828D01*
X1577646Y955034D01*
X1577542Y955137D01*
X1577284Y955240D01*
X1576459Y955189D01*
X1545090Y955240D01*
X1544961Y955369D01*
X1544909Y955576D01*
X1544858Y963366D01*
X1544780Y963444D01*
X1544574Y963495D01*
D02*
G37*
%LPD*%
G36*
X1530592Y996619D02*
X1530773Y996283D01*
X1530721Y996025D01*
X1530592Y995896D01*
X1530257Y995767D01*
X1530102Y995664D01*
X1529973Y995329D01*
X1529818Y995174D01*
X1529457Y995122D01*
X1529173Y995406D01*
Y995458D01*
Y995509D01*
X1529122Y995664D01*
X1529302Y995896D01*
X1529663Y995948D01*
X1529870Y996000D01*
X1529999Y996335D01*
X1530050Y996541D01*
X1530179Y996670D01*
X1530592Y996619D01*
D02*
G37*
G36*
X1538512Y995664D02*
X1538563Y995458D01*
X1538512Y995148D01*
X1538434Y995122D01*
X1538409Y995097D01*
X1538176Y995019D01*
X1537918Y995174D01*
X1537893Y995509D01*
X1538073Y995742D01*
X1538280Y995793D01*
X1538512Y995664D01*
D02*
G37*
G36*
X1544574Y997031D02*
X1544832Y996928D01*
X1545116Y996851D01*
X1545632Y996541D01*
X1545709Y996464D01*
X1545812Y996412D01*
X1546044Y996180D01*
X1546096Y996077D01*
X1546251Y995922D01*
X1546302Y995819D01*
X1546406Y995716D01*
X1546715Y994942D01*
X1546767Y994735D01*
X1546715Y994168D01*
X1546638Y994090D01*
X1546380Y994142D01*
X1546019Y994297D01*
X1545761Y994400D01*
X1545554Y994452D01*
X1545141Y994400D01*
X1544780Y994194D01*
X1544651Y994116D01*
X1544600Y994013D01*
X1544497Y993755D01*
X1544548Y993291D01*
X1544677Y993265D01*
X1544961Y993497D01*
X1545090Y993626D01*
X1545296Y993678D01*
X1545477Y993704D01*
X1545683Y993652D01*
X1545735Y993497D01*
X1545632Y993084D01*
X1545683Y992878D01*
X1545864Y992698D01*
X1545967Y992646D01*
X1546173Y992233D01*
X1546380Y992182D01*
X1546638Y992130D01*
X1546715Y992053D01*
X1546767Y991691D01*
X1547050Y991614D01*
X1547231Y991537D01*
X1547283Y991330D01*
X1547412Y991047D01*
X1547747Y990918D01*
X1547902Y990763D01*
X1547850Y990453D01*
X1547670Y990273D01*
X1547566Y990221D01*
X1547257Y989911D01*
X1547154Y989860D01*
X1547025Y989731D01*
X1546973Y989525D01*
X1546792Y989189D01*
X1546535Y989137D01*
X1546380Y989189D01*
X1546044Y989318D01*
X1545554Y989808D01*
X1545451Y989860D01*
X1545245Y990169D01*
X1544987Y990273D01*
X1544909Y990247D01*
X1545013Y989989D01*
X1545374Y989628D01*
X1545529Y989370D01*
X1546328Y988570D01*
X1546431Y988518D01*
X1546792Y988312D01*
X1546870Y988080D01*
X1546715Y987822D01*
X1546509Y987616D01*
X1546457Y987512D01*
X1546354Y987409D01*
X1546302Y987306D01*
X1545864Y986867D01*
X1545193Y986558D01*
X1544884Y986506D01*
X1544858Y986326D01*
X1545090Y986042D01*
X1545271Y985965D01*
X1545296Y985939D01*
X1545580Y985706D01*
X1545761Y985578D01*
X1545838Y985500D01*
X1545890Y985397D01*
X1545993Y985294D01*
X1546044Y985191D01*
X1546406Y984675D01*
X1546483Y984391D01*
X1546818Y983746D01*
X1546973Y983230D01*
X1547102Y982637D01*
X1547205Y982224D01*
X1547257Y981914D01*
X1547309Y981502D01*
X1547334Y980444D01*
X1547283Y980289D01*
X1547205Y979593D01*
X1546999Y978767D01*
X1546896Y978509D01*
X1546715Y978225D01*
X1546406Y977916D01*
X1546354Y977813D01*
X1546070Y977529D01*
X1545967Y977477D01*
X1545606Y977271D01*
X1545503Y977168D01*
X1545399Y977116D01*
X1545038Y976961D01*
X1544729Y976910D01*
X1544445Y976729D01*
X1544780Y976600D01*
X1545348Y976652D01*
X1545761Y976910D01*
X1546019Y977013D01*
X1546586Y977271D01*
X1546844Y977219D01*
X1547205Y976961D01*
X1547309Y976910D01*
X1547747Y976471D01*
X1547799Y976368D01*
X1547953Y976007D01*
X1548057Y975594D01*
X1548108Y975233D01*
X1548057Y974253D01*
X1548005Y974098D01*
X1547953Y973892D01*
X1547695Y973427D01*
X1547463Y973143D01*
X1547154Y972834D01*
X1547050Y972782D01*
X1546380Y972473D01*
X1545864Y972318D01*
X1545658Y972266D01*
X1544884Y972318D01*
X1544729Y972370D01*
X1544316Y972473D01*
X1543207Y972705D01*
X1542510Y972782D01*
X1541633Y972731D01*
X1541375Y972627D01*
X1541169Y972576D01*
X1540446Y972473D01*
X1540318Y972447D01*
X1540266Y972344D01*
X1540034Y972060D01*
X1539879Y972008D01*
X1539621Y972060D01*
X1539492Y972189D01*
X1539440Y972292D01*
X1539208Y972576D01*
X1538847Y972834D01*
X1538667Y973015D01*
X1538563Y973272D01*
X1538460Y973995D01*
X1538409Y974201D01*
X1538357Y974769D01*
X1538409Y974923D01*
X1538486Y975362D01*
X1538512Y975955D01*
X1538434Y976033D01*
X1537970Y975981D01*
X1537944Y975646D01*
X1537996Y975491D01*
X1538073Y974898D01*
X1538099Y974304D01*
X1538047Y974149D01*
X1537918Y973298D01*
X1537841Y973118D01*
X1537506Y972679D01*
X1537402Y972627D01*
X1537170Y972498D01*
X1537119Y972395D01*
X1537016Y972292D01*
X1536964Y972189D01*
X1536783Y972008D01*
X1536577Y971957D01*
X1536371Y972008D01*
X1536242Y972137D01*
X1536087Y972395D01*
X1536009Y972473D01*
X1535648Y972524D01*
X1534513Y972731D01*
X1533972Y972757D01*
X1532501Y972576D01*
X1532011Y972498D01*
X1531805Y972447D01*
X1531547Y972395D01*
X1531237Y972344D01*
X1530437Y972318D01*
X1530282Y972370D01*
X1529638Y972602D01*
X1529328Y972757D01*
X1529147Y972886D01*
X1529070Y972963D01*
X1529019Y973066D01*
X1528709Y973376D01*
X1528554Y973737D01*
X1528477Y974021D01*
X1528425Y974278D01*
X1528374Y974485D01*
X1528348Y975285D01*
X1528399Y975439D01*
X1528503Y975852D01*
X1528761Y976317D01*
X1529457Y977013D01*
X1529560Y977065D01*
X1529999Y977400D01*
X1530102Y977658D01*
X1530050Y977968D01*
X1529792Y978329D01*
X1529663Y978664D01*
X1529586Y978948D01*
X1529483Y979309D01*
X1529431Y979515D01*
X1529354Y979851D01*
X1529276Y980134D01*
X1529225Y980805D01*
X1529302Y982069D01*
X1529354Y982276D01*
X1529431Y982559D01*
X1529534Y982972D01*
X1529612Y983307D01*
X1530231Y984546D01*
X1530437Y984855D01*
X1530515Y984933D01*
X1530721Y985294D01*
X1531314Y985887D01*
X1531650Y986068D01*
X1531753Y986326D01*
X1531624Y986455D01*
X1531289Y986532D01*
X1531005Y986713D01*
X1530644Y986971D01*
X1530540Y987022D01*
X1530102Y987461D01*
X1530050Y987564D01*
X1529947Y987667D01*
X1529896Y987770D01*
X1529741Y987925D01*
X1529689Y988183D01*
X1529870Y988415D01*
X1529973Y988467D01*
X1530334Y988725D01*
X1530437Y988776D01*
X1530721Y989008D01*
X1530876Y989370D01*
X1530850Y989447D01*
X1530231Y989499D01*
X1530050Y989679D01*
X1529792Y990144D01*
X1529689Y990247D01*
X1529586Y990505D01*
X1529534Y990866D01*
X1529483Y991846D01*
X1529431Y992001D01*
X1529457Y992749D01*
X1529354Y992852D01*
X1528941Y992904D01*
X1528761Y993033D01*
X1528657Y993394D01*
X1528838Y993729D01*
X1529096Y993833D01*
X1529354Y993781D01*
X1529483Y993652D01*
X1529586Y992930D01*
X1529870Y992852D01*
X1530850Y992904D01*
X1531005Y992955D01*
X1531211Y993007D01*
X1531572Y992955D01*
X1531727Y992904D01*
X1531933Y992955D01*
X1532243Y993110D01*
X1532501Y992955D01*
X1532604Y992852D01*
X1532811Y992801D01*
X1533249Y993136D01*
X1533198Y993342D01*
X1533094Y993600D01*
X1533146Y994065D01*
X1533301Y994323D01*
X1533378Y994400D01*
X1533842Y994142D01*
X1533920Y994065D01*
X1533972Y993755D01*
X1533765Y993394D01*
X1533688Y993317D01*
X1533584Y993265D01*
X1533456Y993136D01*
X1533507Y993033D01*
X1533662Y992775D01*
X1533714Y992569D01*
X1533739Y991562D01*
X1533481Y991253D01*
X1533198Y991124D01*
X1533223Y991047D01*
X1533430Y990995D01*
X1534049Y990943D01*
X1534307Y990840D01*
X1534410Y990788D01*
X1534616Y990582D01*
X1534771Y990634D01*
X1534900Y990763D01*
X1534952Y990866D01*
X1535158Y991072D01*
X1535107Y991176D01*
X1535029Y991253D01*
X1534926Y991304D01*
X1534745Y991485D01*
X1534720Y991769D01*
X1534771Y991975D01*
X1535081Y992852D01*
X1535339Y993265D01*
X1535545Y993575D01*
X1535623Y993652D01*
X1535674Y993755D01*
X1535751Y993833D01*
X1535855Y993884D01*
X1536113Y994194D01*
X1536474Y994452D01*
X1537144Y994761D01*
X1537299Y994710D01*
X1537506Y994503D01*
X1537712Y994452D01*
X1538022Y994400D01*
X1538228Y994297D01*
X1538589Y994452D01*
X1539053Y994400D01*
X1539234Y994013D01*
X1539311Y993936D01*
X1539415Y993884D01*
X1539492Y993600D01*
X1539595Y993342D01*
X1539853Y993084D01*
X1539956Y992723D01*
X1540008Y992517D01*
X1540060Y991949D01*
X1540163Y991691D01*
X1539956Y991330D01*
X1539827Y991201D01*
X1539621Y991150D01*
X1539415Y991201D01*
X1538718Y991537D01*
X1538615Y991795D01*
X1538563Y992001D01*
X1538460Y992362D01*
X1538409Y992723D01*
X1538305Y993136D01*
X1538280Y993420D01*
X1538202Y993188D01*
X1538125Y992852D01*
X1538073Y992646D01*
X1537970Y992078D01*
X1537867Y991666D01*
X1537712Y991459D01*
X1537377Y991330D01*
X1537299Y991253D01*
X1537196Y991201D01*
X1537119Y991124D01*
X1537170Y991021D01*
X1537248Y990943D01*
X1537609Y990840D01*
X1537867Y990737D01*
X1537944Y990659D01*
X1538073Y990427D01*
X1538280Y990376D01*
X1538383Y990427D01*
X1538512Y990556D01*
X1538641Y990788D01*
X1539002Y990840D01*
X1539363Y990943D01*
X1539569Y990995D01*
X1540704Y990943D01*
X1541066Y991047D01*
X1541324Y990995D01*
X1541607Y990711D01*
X1541711Y990350D01*
X1541762Y990144D01*
X1541814Y989834D01*
X1541839Y989808D01*
X1541917Y989886D01*
X1541943Y990015D01*
X1541917Y990092D01*
X1541969Y990247D01*
X1541917Y990402D01*
X1541969Y990556D01*
X1542123Y990814D01*
X1542407Y990943D01*
X1542768Y990995D01*
X1544135Y990969D01*
X1544084Y991072D01*
X1544007Y991150D01*
X1543723Y991227D01*
X1543516Y991433D01*
X1543490Y991666D01*
X1543542Y991872D01*
X1543671Y992001D01*
X1543723Y992104D01*
X1543981Y992362D01*
X1544032Y992465D01*
X1544084Y992620D01*
X1544032Y992723D01*
X1543955Y992801D01*
X1543645Y992852D01*
X1543362Y993136D01*
X1543310Y993239D01*
X1543233Y993317D01*
X1543129Y993368D01*
X1542897Y993600D01*
X1542846Y993704D01*
X1542717Y993833D01*
X1542613Y993884D01*
X1542020Y994477D01*
X1542072Y994787D01*
X1542304Y995071D01*
X1542510Y995277D01*
X1542717Y995329D01*
X1542975Y995277D01*
X1543052Y995200D01*
X1543104Y995097D01*
X1543336Y994864D01*
X1543542Y994813D01*
X1543748Y994864D01*
X1543929Y995045D01*
X1544032Y995406D01*
X1544135Y995819D01*
X1544084Y996077D01*
X1543826Y996644D01*
X1543878Y996902D01*
X1544007Y997031D01*
X1544213Y997083D01*
X1544574Y997031D01*
D02*
G37*
G36*
X1531882Y996670D02*
X1532011Y996541D01*
X1532063Y996438D01*
X1532243Y996206D01*
X1532604Y996257D01*
X1532759Y996309D01*
X1532965Y996257D01*
X1533043Y996025D01*
X1533017Y995587D01*
X1533120Y995484D01*
X1533533Y995380D01*
X1533662Y995303D01*
X1533714Y995097D01*
X1533662Y994839D01*
X1533559Y994735D01*
X1533507Y994632D01*
X1533378Y994503D01*
X1533120Y994555D01*
X1533043Y994632D01*
X1532940Y994890D01*
X1532836Y995303D01*
X1532759Y995380D01*
X1532424Y995458D01*
X1532217Y995612D01*
X1532191Y995690D01*
X1532166Y995716D01*
X1532037Y995845D01*
X1531521Y995896D01*
X1531211Y995948D01*
X1531134Y996025D01*
X1531082Y996232D01*
X1531237Y996490D01*
X1531418Y996670D01*
X1531624Y996722D01*
X1531882Y996670D01*
D02*
G37*
G36*
X1529405Y994968D02*
X1529534Y994839D01*
X1529560Y994555D01*
X1529457Y994297D01*
X1529354Y994245D01*
X1529199Y994194D01*
X1528889Y994245D01*
X1528735Y994349D01*
X1528709Y994374D01*
X1528657Y994581D01*
X1528709Y994787D01*
X1528838Y994916D01*
X1529251Y995019D01*
X1529405Y994968D01*
D02*
G37*
G36*
X1539982Y994503D02*
X1540343Y994245D01*
X1540446Y994194D01*
X1540524Y994116D01*
X1540576Y994013D01*
X1540937Y993652D01*
X1540988Y993549D01*
X1541453Y992775D01*
X1541556Y992414D01*
X1541633Y992130D01*
X1541659Y992104D01*
Y992053D01*
X1541762Y991795D01*
X1541711Y991485D01*
X1541478Y991253D01*
X1541117Y991150D01*
X1540756Y991356D01*
X1540524Y991588D01*
X1540472Y991795D01*
X1540421Y992569D01*
X1540318Y992827D01*
X1540266Y992930D01*
X1540060Y993239D01*
X1539931Y993575D01*
X1539802Y993755D01*
X1539492Y993910D01*
X1539363Y994245D01*
X1539286Y994323D01*
X1539234Y994426D01*
X1539182Y994581D01*
X1539234Y994684D01*
X1539621Y994710D01*
X1539982Y994503D01*
D02*
G37*
G36*
X1538512Y991227D02*
X1538460Y990866D01*
X1538073Y990840D01*
X1537996Y990918D01*
Y990969D01*
X1538047Y991330D01*
X1538383Y991356D01*
X1538512Y991227D01*
D02*
G37*
G36*
X1548005Y972241D02*
X1548057Y972034D01*
X1547979Y971647D01*
X1547773Y971131D01*
X1547334Y970383D01*
X1547205Y970203D01*
X1547102Y970151D01*
X1546792Y969945D01*
X1546689Y969893D01*
X1546122Y969635D01*
X1545915Y969584D01*
X1545554Y969532D01*
X1544884Y969480D01*
X1543490D01*
X1541117Y969532D01*
X1539569Y969480D01*
X1539415Y969429D01*
X1539079Y969351D01*
X1538821Y969248D01*
X1538434Y969016D01*
X1538228Y968964D01*
X1537970Y969068D01*
X1537609Y969325D01*
X1537196Y969429D01*
X1536835Y969480D01*
X1534926Y969532D01*
X1534720Y969480D01*
X1530747Y969532D01*
X1530592Y969584D01*
X1530257Y969661D01*
X1530076Y969738D01*
X1529663Y969996D01*
X1529560Y970048D01*
X1529276Y970280D01*
X1529122Y970435D01*
X1528812Y971002D01*
X1528503Y971673D01*
X1528451Y971879D01*
X1528503Y972241D01*
X1528838Y972266D01*
X1529199Y972060D01*
X1529560Y971905D01*
X1529947Y971828D01*
X1530154Y971776D01*
X1530412Y971725D01*
X1532191Y971699D01*
X1532346Y971750D01*
X1535287Y971802D01*
X1535442Y971750D01*
X1536835Y971699D01*
X1536990Y971647D01*
X1537454Y971596D01*
X1537815Y971389D01*
X1538022Y971183D01*
X1538228Y971131D01*
X1538486Y971183D01*
X1538795Y971492D01*
X1539053Y971596D01*
X1539260Y971647D01*
X1540343Y971699D01*
X1540498Y971750D01*
X1542097Y971802D01*
X1543826Y971725D01*
X1545322Y971673D01*
X1545451Y971647D01*
X1545606Y971699D01*
X1546277Y971750D01*
X1546431Y971802D01*
X1546792Y971905D01*
X1547076Y971983D01*
X1547618Y972266D01*
X1547876Y972318D01*
X1548005Y972241D01*
D02*
G37*
%LPC*%
G36*
X1537248Y994194D02*
X1537170Y994116D01*
Y994065D01*
X1537248Y994039D01*
X1537274Y994168D01*
X1537248Y994194D01*
D02*
G37*
G36*
X1544832Y991975D02*
X1544755Y991898D01*
X1544806Y991691D01*
X1544935Y991666D01*
X1544987D01*
X1545064Y991691D01*
X1544961Y991949D01*
X1544832Y991975D01*
D02*
G37*
G36*
X1531933Y991872D02*
X1531727D01*
X1531701Y991846D01*
X1531650Y991691D01*
X1531701Y991588D01*
X1532088Y991562D01*
X1532114Y991691D01*
X1531933Y991872D01*
D02*
G37*
G36*
X1545296Y991562D02*
X1545219Y991485D01*
X1545271Y991279D01*
X1545348Y991253D01*
X1545374Y991279D01*
X1545477Y991382D01*
X1545451Y991511D01*
X1545296Y991562D01*
D02*
G37*
G36*
X1536938Y993729D02*
X1536732Y993678D01*
X1536603Y993549D01*
X1536474Y993213D01*
X1536242Y992878D01*
X1536138Y992620D01*
X1536035Y992259D01*
X1535984Y991588D01*
X1535751Y991304D01*
X1535571Y991176D01*
X1535623Y991072D01*
X1535855Y990995D01*
X1536629Y991047D01*
X1536654Y991176D01*
X1536551Y991279D01*
X1536500Y991382D01*
X1536396Y991640D01*
Y991846D01*
Y991898D01*
X1536500Y992259D01*
X1536551Y992775D01*
X1536886Y993265D01*
X1536964Y993497D01*
X1536938Y993729D01*
D02*
G37*
G36*
X1532140Y990737D02*
X1531933D01*
X1531908Y990711D01*
X1531805Y990608D01*
X1531830Y990479D01*
X1531985Y990531D01*
X1532114Y990608D01*
X1532140Y990737D01*
D02*
G37*
G36*
X1544626Y990788D02*
X1544342Y990763D01*
X1544393Y990608D01*
X1544419Y990582D01*
X1544574Y990427D01*
X1544755Y990402D01*
X1544806Y990556D01*
X1544755Y990659D01*
X1544626Y990788D01*
D02*
G37*
G36*
X1546019Y991047D02*
X1545915Y990995D01*
X1545890Y990763D01*
X1546019Y990634D01*
X1546122Y990582D01*
X1546251Y990505D01*
Y990453D01*
X1546277Y990427D01*
X1546483Y990118D01*
X1546689Y990066D01*
X1546844Y990118D01*
X1546870Y990350D01*
X1546792Y990479D01*
X1546586Y990531D01*
X1546354Y990659D01*
X1546225Y990995D01*
X1546019Y991047D01*
D02*
G37*
G36*
X1531469Y990169D02*
X1531314Y990118D01*
X1531185Y989989D01*
X1531134Y989782D01*
X1531160Y989705D01*
X1531418Y989860D01*
X1531469Y989963D01*
X1531495Y989989D01*
X1531469Y990169D01*
D02*
G37*
G36*
X1540240Y989757D02*
X1539724Y989705D01*
X1539440Y989473D01*
X1539389Y989421D01*
X1539363Y989396D01*
X1539286Y989163D01*
X1539415Y989034D01*
X1539621Y988983D01*
X1539982Y989034D01*
X1540266Y989267D01*
X1540369Y989370D01*
X1540318Y989679D01*
X1540240Y989757D01*
D02*
G37*
G36*
X1536680D02*
X1536319Y989705D01*
X1536190Y989576D01*
X1536242Y989370D01*
X1536474Y989137D01*
X1536732Y989034D01*
X1537093Y988983D01*
X1537325Y989163D01*
X1537274Y989370D01*
X1537144Y989550D01*
X1537067Y989576D01*
X1537041Y989602D01*
X1536680Y989757D01*
D02*
G37*
G36*
X1533739Y987229D02*
X1533688D01*
X1533533Y987177D01*
X1533507Y987151D01*
X1533791Y987125D01*
X1534023Y987203D01*
X1533739Y987229D01*
D02*
G37*
G36*
X1542407Y987332D02*
X1542149Y987280D01*
X1542072Y987203D01*
X1542123Y986996D01*
X1542252Y986867D01*
X1542562Y986919D01*
X1542665Y987022D01*
X1542691Y987048D01*
X1542742Y987151D01*
X1542613Y987280D01*
X1542407Y987332D01*
D02*
G37*
G36*
X1543748Y986919D02*
X1543542Y986867D01*
X1543465Y986687D01*
X1543620Y986429D01*
X1543800Y986403D01*
X1544007Y986558D01*
X1544032Y986584D01*
X1544084Y986738D01*
X1544007Y986816D01*
X1543748Y986919D01*
D02*
G37*
G36*
X1541891Y988931D02*
X1541814Y988854D01*
X1541711Y988493D01*
X1541453Y988028D01*
X1541349Y987925D01*
X1541298Y987822D01*
X1541143Y987667D01*
X1541091Y987564D01*
X1540859Y987332D01*
X1540756Y987280D01*
X1540395Y986919D01*
X1540137Y986764D01*
X1540060Y986687D01*
X1540008Y986480D01*
X1539982Y986403D01*
X1539956Y986377D01*
X1539982Y986300D01*
X1540498Y986351D01*
X1540576Y986429D01*
X1540653Y986713D01*
X1540730Y986790D01*
X1540782Y986893D01*
X1540962Y987022D01*
X1541246Y987254D01*
X1541814Y987512D01*
X1541917Y987925D01*
X1541943Y988776D01*
X1541891Y988931D01*
D02*
G37*
G36*
X1534668Y989137D02*
X1534591Y988905D01*
X1534642Y988389D01*
X1534694Y988235D01*
X1534642Y988028D01*
X1534591Y987667D01*
X1534720Y987486D01*
X1535081Y987332D01*
X1535287Y987280D01*
X1535571Y987048D01*
X1535623Y986945D01*
X1535726Y986687D01*
X1535751Y986609D01*
X1535777Y986584D01*
X1535829Y986326D01*
X1536061Y986248D01*
X1536500Y986274D01*
X1536422Y986558D01*
X1536293Y986738D01*
X1536164Y986867D01*
X1536061Y986919D01*
X1535777Y987151D01*
X1535597Y987280D01*
X1535468Y987409D01*
X1535261Y987770D01*
X1534900Y988131D01*
X1534797Y988389D01*
X1534745Y989060D01*
X1534668Y989137D01*
D02*
G37*
G36*
X1539724Y986094D02*
X1539595Y985965D01*
Y985913D01*
X1539569Y985887D01*
X1539440Y985552D01*
X1539389Y985345D01*
X1539440Y984984D01*
X1539621Y984958D01*
X1539879Y985113D01*
X1539905Y985345D01*
X1539853Y985500D01*
X1539827Y985835D01*
X1539853Y986068D01*
X1539724Y986094D01*
D02*
G37*
G36*
X1536783Y985939D02*
X1536680Y985887D01*
X1536629Y985629D01*
X1536293Y984984D01*
X1536345Y984881D01*
X1536422Y984804D01*
X1536629Y984752D01*
X1536732Y984804D01*
X1536835Y984907D01*
X1536861Y984933D01*
X1536964Y985191D01*
X1536912Y985706D01*
X1536783Y985939D01*
D02*
G37*
G36*
X1541943Y984804D02*
X1541685Y984752D01*
X1541659Y984726D01*
X1541633Y984700D01*
X1541607Y984623D01*
X1541736Y984443D01*
X1541891Y984494D01*
X1541969Y984726D01*
X1541943Y984804D01*
D02*
G37*
G36*
X1541220Y983823D02*
X1541169Y983772D01*
X1541143Y983746D01*
X1541220Y983669D01*
X1541298Y983746D01*
X1541220Y983823D01*
D02*
G37*
G36*
X1542562Y983720D02*
X1542510D01*
X1542252Y983669D01*
X1542123Y983540D01*
X1542072Y983333D01*
X1542123Y983127D01*
X1542201Y983049D01*
X1542407Y983101D01*
X1542588Y983230D01*
X1542691Y983488D01*
X1542639Y983643D01*
X1542562Y983720D01*
D02*
G37*
G36*
X1537248Y983049D02*
X1537144Y982998D01*
X1537119Y982766D01*
X1537299Y982585D01*
X1537377Y982611D01*
X1537428Y982766D01*
X1537274Y983024D01*
X1537248Y983049D01*
D02*
G37*
G36*
X1539518Y983772D02*
X1539389Y983746D01*
Y983591D01*
X1539415Y983565D01*
X1539466Y983359D01*
X1539647Y983075D01*
X1539956Y982869D01*
X1540008Y982766D01*
X1540188Y982585D01*
X1540550Y982533D01*
X1540782Y982663D01*
X1540730Y983024D01*
X1540653Y983101D01*
X1540085Y983153D01*
X1539905Y983333D01*
X1539853Y983436D01*
X1539518Y983772D01*
D02*
G37*
G36*
X1534823Y982895D02*
X1534616Y982843D01*
X1534539Y982766D01*
X1534591Y982508D01*
X1534668Y982430D01*
X1534823Y982379D01*
X1535003Y982508D01*
X1535055Y982714D01*
X1535003Y982817D01*
X1534978Y982843D01*
X1534823Y982895D01*
D02*
G37*
G36*
X1541736Y982740D02*
X1541375Y982533D01*
X1541349Y982353D01*
X1541427Y982276D01*
X1541943Y982121D01*
X1542149Y982069D01*
X1542201D01*
X1542304Y982018D01*
X1542381Y981940D01*
X1542536Y981682D01*
X1542613Y981605D01*
X1542794Y981579D01*
X1542897Y981631D01*
X1542846Y981889D01*
X1542717Y982018D01*
X1542252Y982276D01*
X1542175Y982353D01*
X1542123Y982456D01*
X1542020Y982559D01*
X1541969Y982663D01*
X1541736Y982740D01*
D02*
G37*
G36*
X1537635Y982301D02*
X1537583Y982147D01*
X1537635Y981785D01*
X1537764Y981656D01*
X1538125Y981553D01*
X1538460Y981579D01*
X1538409Y981785D01*
X1538151Y981940D01*
X1538125Y981966D01*
X1537918Y982172D01*
X1537815Y982224D01*
X1537635Y982301D01*
D02*
G37*
G36*
X1539208Y981450D02*
X1538641Y981398D01*
X1538589Y981192D01*
X1538563Y980908D01*
X1538641Y980831D01*
X1539131Y980908D01*
X1539337Y980960D01*
X1539595Y981063D01*
X1539698Y981166D01*
X1539647Y981270D01*
X1539569Y981347D01*
X1539234Y981424D01*
X1539208Y981450D01*
D02*
G37*
G36*
X1543620Y982663D02*
X1543568Y982456D01*
X1543516Y981631D01*
X1543387Y981502D01*
X1543284Y981450D01*
X1543207Y981373D01*
Y981063D01*
Y981012D01*
X1543258Y980650D01*
X1543310Y980392D01*
X1543387Y980315D01*
X1543800Y980263D01*
X1543955Y980315D01*
X1544058Y980367D01*
X1544084Y980599D01*
X1544032Y980753D01*
X1543981Y980960D01*
X1543878Y981218D01*
X1543826Y981424D01*
X1543878Y982404D01*
X1543748Y982637D01*
X1543620Y982663D01*
D02*
G37*
G36*
X1537402Y980263D02*
X1537274Y980134D01*
X1537454Y980109D01*
X1537583Y980186D01*
Y980238D01*
X1537402Y980263D01*
D02*
G37*
G36*
X1545915Y980470D02*
X1545632Y980392D01*
X1545477Y980289D01*
X1545786Y979980D01*
X1545838Y979876D01*
X1545915Y979799D01*
X1545967D01*
X1546122Y979851D01*
X1546251Y980134D01*
X1546199Y980341D01*
X1546122Y980418D01*
X1545915Y980470D01*
D02*
G37*
G36*
X1536990Y979902D02*
X1536680Y979851D01*
X1536319Y979490D01*
X1536216Y979438D01*
X1536035Y979309D01*
X1536009Y979283D01*
X1535932Y979257D01*
X1535880Y979102D01*
X1536061Y979077D01*
X1536164Y979180D01*
X1536267Y979231D01*
X1536396Y979361D01*
X1536422Y979438D01*
X1536525Y979490D01*
X1536886Y979696D01*
X1537016Y979825D01*
X1536990Y979902D01*
D02*
G37*
G36*
X1546122Y978922D02*
X1546096Y978896D01*
X1546148Y978845D01*
X1546173Y978819D01*
X1546199Y978896D01*
X1546122Y978922D01*
D02*
G37*
G36*
X1543748Y979283D02*
X1543516Y979154D01*
X1543671Y978793D01*
X1543723Y978483D01*
X1543800Y978458D01*
X1544032Y978948D01*
Y978999D01*
X1544187Y979154D01*
X1544110Y979231D01*
X1543748Y979283D01*
D02*
G37*
G36*
X1538331Y978922D02*
X1538073Y978870D01*
X1538047Y978535D01*
X1538125Y978458D01*
X1538434Y978509D01*
X1538486Y978716D01*
X1538434Y978870D01*
X1538357Y978896D01*
X1538331Y978922D01*
D02*
G37*
G36*
X1541272Y980934D02*
X1541040Y980908D01*
X1541091Y980702D01*
X1541169Y980625D01*
X1541272Y980573D01*
X1541349Y980496D01*
X1541453Y980238D01*
X1541504Y980031D01*
X1541556Y979670D01*
X1541607Y979515D01*
X1541556Y979102D01*
X1541401Y978845D01*
X1541349Y978638D01*
X1541453Y978380D01*
X1541711Y977916D01*
X1541994Y977787D01*
X1542175Y977916D01*
X1542227Y978122D01*
X1542175Y978277D01*
X1541994Y978406D01*
X1541917Y978483D01*
X1541814Y978741D01*
X1541865Y979051D01*
X1541943Y979128D01*
X1542201Y979231D01*
X1542355Y979180D01*
X1542433Y979102D01*
X1542536Y978741D01*
X1542613Y978458D01*
X1542820Y978354D01*
X1542897Y978432D01*
X1542949Y979051D01*
X1543000Y979206D01*
X1542768Y979283D01*
X1542252Y979335D01*
X1542020Y979567D01*
X1541969Y979773D01*
X1542123Y980289D01*
X1541969Y980547D01*
X1541839Y980676D01*
X1541530Y980831D01*
X1541504Y980857D01*
X1541272Y980934D01*
D02*
G37*
G36*
X1545864Y979438D02*
X1545348Y979386D01*
X1545193Y979335D01*
X1544832Y979283D01*
X1544755Y979206D01*
X1544806Y979051D01*
X1544909Y978948D01*
X1545167Y978483D01*
X1545271Y978380D01*
X1545322Y978277D01*
X1545399Y978200D01*
X1545606Y978148D01*
X1545709Y978200D01*
X1545735Y978329D01*
X1545658Y978406D01*
X1545322Y978483D01*
X1545219Y978587D01*
Y978638D01*
Y978690D01*
X1545425Y979051D01*
X1545606Y979231D01*
X1545864Y979283D01*
X1545941Y979361D01*
X1545864Y979438D01*
D02*
G37*
G36*
X1531005Y980418D02*
X1530850Y980367D01*
X1530721Y980238D01*
X1530773Y979928D01*
X1530876Y979670D01*
X1530721Y979309D01*
X1530695Y979077D01*
X1530747Y978354D01*
X1530798Y978148D01*
X1530902Y978045D01*
X1531031Y978071D01*
X1531108Y978354D01*
X1531185Y978535D01*
X1531211Y978561D01*
X1531237Y978845D01*
X1531031Y979309D01*
X1531082Y979515D01*
X1531185Y979619D01*
X1531211Y979747D01*
X1531082Y980031D01*
X1531031Y980238D01*
X1531005Y980418D01*
D02*
G37*
G36*
X1534823Y977890D02*
X1534745Y977813D01*
X1534771Y977580D01*
X1534823Y977632D01*
X1534849Y977658D01*
X1534823Y977890D01*
D02*
G37*
G36*
X1531005Y977684D02*
X1530902Y977632D01*
X1530824Y977555D01*
X1530773Y977348D01*
X1530824Y977245D01*
X1530902Y977168D01*
X1531134Y977090D01*
X1531211Y976807D01*
X1531340Y976626D01*
X1531418Y976600D01*
X1531469D01*
X1531572Y976652D01*
X1531650Y976729D01*
X1531598Y976884D01*
X1531469Y977013D01*
X1531134Y977142D01*
X1531082Y977606D01*
X1531005Y977684D01*
D02*
G37*
G36*
X1532759Y982895D02*
X1532682Y982611D01*
X1532604Y982172D01*
X1532501Y981966D01*
X1532243Y981863D01*
X1531469Y981811D01*
X1531340Y981682D01*
Y981631D01*
X1531314Y981605D01*
X1531263Y981295D01*
X1531134Y981012D01*
X1531082Y980805D01*
X1531031Y980444D01*
X1531056Y980418D01*
X1531211Y980470D01*
X1531830Y980573D01*
X1532346Y980418D01*
X1532578Y980289D01*
X1532527Y979980D01*
X1532449Y979902D01*
X1532346Y979851D01*
X1532269Y979773D01*
X1532321Y979619D01*
X1532449Y979490D01*
X1532527Y979464D01*
X1532578Y979257D01*
X1532527Y979102D01*
X1532346Y978922D01*
X1532243Y978870D01*
X1532217Y978638D01*
X1532346Y978509D01*
X1532501Y978561D01*
X1532578Y978638D01*
X1532682Y979051D01*
X1532733Y979206D01*
X1532656Y979593D01*
X1532630Y979876D01*
X1532785Y980186D01*
X1532630Y980444D01*
X1532682Y980805D01*
X1532811Y980934D01*
X1533378Y981192D01*
X1533559Y981012D01*
X1533610Y980805D01*
X1533584Y979799D01*
X1533688Y979541D01*
X1533791Y979335D01*
X1533688Y979077D01*
X1533456Y978535D01*
X1533378Y978251D01*
X1533223Y977993D01*
X1533120Y977942D01*
X1532862Y977684D01*
X1532449Y977529D01*
X1532346Y977116D01*
X1532217Y976832D01*
X1532346Y976703D01*
X1532682Y976626D01*
X1532940Y976574D01*
X1533223Y976549D01*
X1533456Y976678D01*
X1533507Y977606D01*
X1533610Y977710D01*
X1533662Y977813D01*
X1533920Y978071D01*
X1533972Y978277D01*
X1534229Y978845D01*
X1534178Y979102D01*
X1534100Y979180D01*
X1533997Y979231D01*
X1533868Y979361D01*
X1533946Y980160D01*
X1533972Y980599D01*
X1533920Y980753D01*
X1533894Y981192D01*
X1533920Y981734D01*
X1533842Y981811D01*
X1533636Y981863D01*
X1533378Y981760D01*
X1533120Y981811D01*
X1532991Y981940D01*
X1532940Y982301D01*
X1532888Y982869D01*
X1532759Y982895D01*
D02*
G37*
G36*
X1540498Y976910D02*
X1540395Y976858D01*
X1540369Y976729D01*
X1540498Y976497D01*
X1540859Y976549D01*
X1540937Y976626D01*
Y976678D01*
X1540859Y976807D01*
X1540498Y976910D01*
D02*
G37*
G36*
X1542459Y977374D02*
X1542381Y977297D01*
X1542562Y977116D01*
X1542665Y977065D01*
X1542794Y976936D01*
X1542846Y976471D01*
X1543336Y976445D01*
X1543800Y976703D01*
X1543826Y976781D01*
X1543800Y976807D01*
X1543774Y976832D01*
X1543697Y976910D01*
X1543439Y977013D01*
X1543104Y977090D01*
X1542846Y977194D01*
X1542613Y977323D01*
X1542459Y977374D01*
D02*
G37*
G36*
X1541814Y976368D02*
X1541865Y976265D01*
X1542355Y976239D01*
X1542381Y976265D01*
X1542149Y976342D01*
X1541994D01*
X1541814Y976368D01*
D02*
G37*
G36*
X1539776Y977477D02*
X1539492Y977245D01*
X1539415Y977168D01*
X1539079Y977039D01*
X1538899Y976910D01*
X1538821Y976832D01*
X1538718Y976574D01*
X1538667Y976368D01*
X1538692Y976188D01*
X1539053Y976239D01*
X1539337Y976471D01*
X1539415Y976807D01*
X1539466Y977013D01*
X1539569Y977116D01*
X1539931D01*
X1540214Y977142D01*
X1540163Y977348D01*
X1540085Y977426D01*
X1539776Y977477D01*
D02*
G37*
G36*
X1534358Y976755D02*
X1534281Y976729D01*
X1534255Y976703D01*
X1534152Y976652D01*
X1533817Y976420D01*
X1533842Y976239D01*
X1534049Y976188D01*
X1534849Y976265D01*
X1534823Y976342D01*
X1534720Y976394D01*
X1534358Y976755D01*
D02*
G37*
G36*
X1536629Y977529D02*
X1536474Y977477D01*
X1536371Y977426D01*
X1536190Y977245D01*
X1536035Y976987D01*
X1535751Y976807D01*
X1535623Y976678D01*
X1535519Y976420D01*
X1535958Y976394D01*
X1536087Y976523D01*
X1536164Y976858D01*
X1536267Y977013D01*
X1536680Y977065D01*
X1536732D01*
X1536938Y977013D01*
X1537016Y976936D01*
X1537067Y976729D01*
X1537170Y976471D01*
X1537351Y976291D01*
X1537454Y976239D01*
X1537712Y976136D01*
X1537815Y976188D01*
X1537841Y976420D01*
X1537531Y976987D01*
X1537222Y977194D01*
X1537144Y977271D01*
X1537067Y977297D01*
X1537041Y977374D01*
X1536938Y977426D01*
X1536629Y977529D01*
D02*
G37*
G36*
X1531933Y975929D02*
X1531856Y975852D01*
X1531908Y975594D01*
X1532166Y975130D01*
X1532295Y975052D01*
X1532346D01*
X1532501Y975104D01*
X1532578Y975181D01*
X1532630Y975388D01*
X1532578Y975646D01*
X1532449Y975775D01*
X1532114Y975904D01*
X1531933Y975929D01*
D02*
G37*
%LPD*%
G36*
X1532243Y981553D02*
X1532372Y981424D01*
X1532424Y981218D01*
X1532295Y981037D01*
X1531933Y980882D01*
X1531830D01*
X1531572Y981037D01*
X1531443Y981270D01*
X1531495Y981424D01*
X1531572Y981502D01*
X1531933Y981605D01*
X1532243Y981553D01*
D02*
G37*
G36*
X1546999Y951680D02*
X1547154Y951629D01*
X1547412Y951526D01*
X1547979Y951216D01*
X1548263Y950984D01*
X1548469Y950674D01*
X1548598Y950339D01*
X1548701Y950081D01*
X1548779Y949797D01*
X1548727Y949023D01*
X1548598Y948894D01*
X1548392Y948843D01*
X1548031Y948791D01*
X1547876Y948843D01*
X1547050Y948791D01*
X1546896Y948843D01*
X1546638Y948998D01*
X1546509Y949127D01*
X1546302Y949488D01*
X1546173Y949617D01*
X1545967Y949668D01*
X1544239Y949694D01*
X1544032Y949642D01*
X1543748Y949462D01*
X1543671Y949385D01*
X1543568Y949127D01*
X1543516Y948920D01*
X1543568Y948456D01*
X1543800Y948172D01*
X1544110Y947966D01*
X1545709Y947914D01*
X1545864Y947862D01*
X1547205Y947811D01*
X1547876Y947450D01*
X1547979Y947347D01*
X1548082Y947295D01*
X1548366Y947063D01*
X1548624Y946495D01*
X1548727Y946237D01*
X1548779Y945876D01*
X1548831Y945670D01*
X1548779Y943554D01*
X1548727Y943400D01*
X1548598Y943064D01*
X1548263Y942471D01*
X1548186Y942394D01*
X1547824Y942187D01*
X1547360Y941981D01*
X1547154Y941929D01*
X1546638Y941878D01*
X1542975Y941929D01*
X1542717Y942032D01*
X1542613Y942084D01*
X1542149Y942342D01*
X1541865Y942626D01*
X1541659Y942987D01*
X1541504Y943348D01*
X1541453Y943709D01*
X1541401Y944638D01*
X1541633Y944922D01*
X1541839Y944973D01*
X1543104Y944999D01*
X1543310Y944948D01*
X1543465Y944793D01*
X1543568Y944535D01*
X1543620Y944328D01*
X1543723Y944225D01*
X1543774Y944122D01*
X1543852Y944045D01*
X1543955Y943993D01*
X1544213Y943890D01*
X1546173Y943941D01*
X1546354Y944070D01*
X1546406Y944174D01*
X1546560Y944535D01*
X1546612Y944741D01*
X1546560Y945257D01*
X1546302Y945721D01*
X1546225Y945799D01*
X1545864Y945850D01*
X1544574Y945902D01*
X1544368Y945954D01*
X1543387Y946005D01*
X1543233Y946057D01*
X1542820Y946108D01*
X1542562Y946211D01*
X1542227Y946340D01*
X1542046Y946469D01*
X1541969Y946547D01*
X1541917Y946650D01*
X1541762Y946805D01*
X1541711Y946908D01*
X1541504Y947372D01*
X1541453Y947734D01*
X1541401Y948714D01*
X1541453Y950004D01*
X1541504Y950158D01*
X1541633Y950494D01*
X1541762Y950674D01*
X1542123Y951139D01*
X1542201Y951216D01*
X1542304Y951268D01*
X1542975Y951577D01*
X1543387Y951680D01*
X1543903Y951732D01*
X1544574D01*
X1546999Y951680D01*
D02*
G37*
G36*
X1540653D02*
X1540782Y951552D01*
X1540730Y951293D01*
X1540524Y950984D01*
X1540369Y950726D01*
X1540111Y950468D01*
X1540060Y950365D01*
X1539853Y950004D01*
X1539621Y949720D01*
X1539311Y949204D01*
X1539234Y949127D01*
X1539182Y949023D01*
X1539079Y948920D01*
X1538821Y948456D01*
X1538667Y948301D01*
X1538615Y948198D01*
X1538409Y947837D01*
X1538176Y947553D01*
X1538047Y947269D01*
X1538099Y946908D01*
X1538357Y946650D01*
X1538409Y946547D01*
X1538718Y945979D01*
X1538873Y945825D01*
X1539182Y945257D01*
X1539440Y944896D01*
X1539698Y944432D01*
X1539956Y944070D01*
X1540214Y943606D01*
X1540472Y943245D01*
X1540679Y942884D01*
X1541040Y942368D01*
X1541066Y942084D01*
X1540937Y941903D01*
X1540730Y941852D01*
X1540498Y941826D01*
X1540343Y941878D01*
X1538744Y941929D01*
X1538563Y942058D01*
X1538512Y942161D01*
X1538176Y942652D01*
X1537944Y943038D01*
X1537738Y943400D01*
X1537635Y943503D01*
X1537583Y943606D01*
X1537274Y944174D01*
X1537119Y944328D01*
X1537067Y944432D01*
X1536809Y944896D01*
X1536603Y945205D01*
X1536500Y945463D01*
X1536345Y945721D01*
X1536216Y945850D01*
X1535906Y945799D01*
X1535829Y945721D01*
X1535880Y944225D01*
X1535829Y944070D01*
X1535880Y942884D01*
Y942832D01*
X1535829Y942110D01*
X1535648Y941929D01*
X1535442Y941878D01*
X1534281Y941852D01*
X1534023Y941903D01*
X1533842Y942032D01*
X1533714Y942368D01*
X1533765Y944586D01*
X1533714Y944793D01*
X1533765Y946702D01*
X1533714Y947991D01*
X1533739Y950545D01*
X1533714Y951242D01*
X1533920Y951603D01*
X1533997Y951680D01*
X1534358Y951732D01*
X1535597Y951680D01*
X1535777Y951552D01*
X1535880Y951190D01*
X1535829Y949952D01*
X1535880Y949797D01*
X1535855Y948430D01*
X1535958Y948327D01*
X1536267Y948378D01*
X1536396Y948507D01*
X1536809Y949281D01*
X1537016Y949591D01*
X1537067Y949694D01*
X1537299Y949978D01*
X1537377Y950055D01*
X1537686Y950623D01*
X1537841Y950778D01*
X1537893Y950881D01*
X1538099Y951242D01*
X1538202Y951345D01*
X1538254Y951448D01*
X1538383Y951577D01*
X1538486Y951629D01*
X1538744Y951732D01*
X1540653Y951680D01*
D02*
G37*
G36*
X1556234D02*
X1556363Y951552D01*
X1556415Y951345D01*
X1556466Y950984D01*
X1556415Y950623D01*
X1556466Y948559D01*
X1556441Y942548D01*
X1556466Y942419D01*
X1556415Y942265D01*
X1556363Y942058D01*
X1556183Y941878D01*
X1554532Y941929D01*
X1554403Y942058D01*
X1554351Y942265D01*
X1554299Y945721D01*
X1554222Y945850D01*
X1553809Y945954D01*
X1553654Y945902D01*
X1552236Y945928D01*
X1551978Y945825D01*
X1551926Y945721D01*
X1551875Y945567D01*
X1551823Y942058D01*
X1551694Y941929D01*
X1551488Y941878D01*
X1549991Y941929D01*
X1549862Y942058D01*
X1549811Y942265D01*
X1549759Y943554D01*
X1549785Y948894D01*
X1549759Y950158D01*
X1549811Y950313D01*
X1549785Y951061D01*
X1549837Y951474D01*
X1549991Y951680D01*
X1550198Y951732D01*
X1551694Y951680D01*
X1551823Y951552D01*
X1551875Y951190D01*
X1551926Y948146D01*
X1552003Y948017D01*
X1552262Y947914D01*
X1553087Y947966D01*
X1553964Y947914D01*
X1553990Y947940D01*
X1554170Y948017D01*
X1554299Y948146D01*
X1554351Y948507D01*
X1554403Y951500D01*
X1554532Y951680D01*
X1554893Y951732D01*
X1556234Y951680D01*
D02*
G37*
G36*
X1516713D02*
X1516842Y951603D01*
X1516894Y951397D01*
X1516842Y950984D01*
X1516739Y950726D01*
X1516662Y950442D01*
X1516610Y950236D01*
X1516559Y949978D01*
X1516455Y949565D01*
X1516378Y949281D01*
X1516223Y948662D01*
X1516146Y948327D01*
X1516094Y948120D01*
X1515965Y947682D01*
X1515862Y947321D01*
X1515811Y947114D01*
X1515630Y946263D01*
X1515501Y945825D01*
X1515295Y945154D01*
X1515243Y944793D01*
X1515166Y944457D01*
X1514882Y943554D01*
X1514804Y943219D01*
X1514753Y943013D01*
X1514727Y942987D01*
Y942935D01*
X1514650Y942497D01*
X1514521Y942161D01*
X1514392Y941981D01*
X1514134Y941878D01*
X1512457Y941852D01*
X1512251Y941903D01*
X1511993Y942058D01*
X1511838Y942419D01*
X1511760Y942755D01*
X1511709Y942961D01*
X1511657Y943219D01*
X1511580Y943503D01*
X1511373Y944174D01*
X1511270Y944586D01*
X1511193Y944922D01*
X1511141Y945180D01*
X1511090Y945386D01*
X1511012Y945670D01*
X1510909Y946031D01*
X1510806Y946444D01*
X1510728Y946934D01*
X1510677Y947140D01*
X1510574Y947398D01*
X1510470Y947501D01*
X1510367Y947450D01*
X1510290Y947372D01*
X1510187Y947114D01*
X1510109Y946831D01*
X1510058Y946624D01*
X1510006Y946366D01*
X1509929Y946083D01*
X1509851Y945747D01*
X1509800Y945541D01*
X1509722Y945257D01*
X1509619Y944896D01*
X1509361Y944070D01*
X1509284Y943735D01*
X1509181Y943219D01*
X1509129Y943013D01*
X1508819Y942136D01*
X1508691Y941955D01*
X1508458Y941878D01*
X1506446Y941929D01*
X1506317Y942058D01*
X1506214Y942316D01*
X1506137Y942652D01*
X1506085Y942858D01*
X1505853Y943606D01*
X1505775Y944045D01*
X1505724Y944303D01*
X1505621Y944715D01*
X1505517Y944973D01*
X1505440Y945257D01*
X1505337Y945670D01*
X1505156Y946521D01*
X1504976Y947114D01*
X1504873Y947476D01*
X1504795Y947811D01*
X1504692Y948327D01*
X1504640Y948533D01*
X1504486Y948946D01*
X1504434Y949152D01*
X1504357Y949436D01*
X1504279Y949771D01*
X1504176Y950287D01*
X1504124Y950494D01*
X1504021Y950752D01*
X1503892Y951190D01*
X1503944Y951603D01*
X1504021Y951680D01*
X1504228Y951732D01*
X1505724Y951680D01*
X1505853Y951552D01*
X1506059Y951036D01*
X1506214Y950520D01*
X1506266Y950158D01*
X1506317Y949952D01*
X1506395Y949617D01*
X1506446Y949410D01*
X1506575Y948972D01*
X1506678Y948611D01*
X1506730Y948404D01*
X1506911Y947553D01*
X1506988Y947269D01*
X1507091Y946908D01*
X1507194Y946495D01*
X1507272Y946005D01*
X1507323Y945747D01*
X1507426Y945489D01*
X1507581Y945438D01*
X1507659Y945463D01*
X1507710Y945567D01*
X1507813Y945825D01*
X1507865Y946186D01*
X1507917Y946392D01*
X1508046Y946934D01*
X1508149Y947347D01*
X1508252Y947862D01*
X1508304Y948069D01*
X1508355Y948327D01*
X1508433Y948611D01*
X1508639Y949281D01*
X1508742Y949694D01*
X1508819Y950184D01*
X1508871Y950391D01*
X1509052Y950984D01*
X1509232Y951474D01*
X1509361Y951655D01*
X1509645Y951732D01*
X1511399Y951680D01*
X1511631Y951448D01*
X1511735Y951087D01*
X1511786Y950726D01*
X1511838Y950520D01*
X1511915Y950236D01*
X1512147Y949488D01*
X1512225Y949152D01*
X1512276Y948843D01*
X1512354Y948559D01*
X1512431Y948224D01*
X1512483Y948017D01*
X1512612Y947682D01*
X1512663Y947476D01*
X1512818Y946599D01*
X1512870Y946392D01*
X1512947Y946005D01*
X1513128Y945721D01*
X1513257Y945644D01*
X1513437Y945773D01*
X1513540Y946031D01*
X1513618Y946521D01*
X1513669Y946779D01*
X1513721Y947089D01*
X1513824Y947605D01*
X1513979Y948017D01*
X1514108Y948456D01*
X1514185Y948791D01*
X1514237Y949101D01*
X1514340Y949617D01*
X1514624Y950520D01*
X1514675Y950881D01*
X1514727Y951087D01*
X1514804Y951371D01*
X1515062Y951680D01*
X1515423Y951732D01*
X1516713Y951680D01*
D02*
G37*
G36*
X1570680D02*
X1570938Y951577D01*
X1571712Y951164D01*
X1572151Y950726D01*
X1572306Y950365D01*
X1572357Y950262D01*
X1572564Y949797D01*
X1572615Y949591D01*
X1572667Y948920D01*
X1572718Y948404D01*
X1572641Y947140D01*
X1572564Y946650D01*
X1572254Y945979D01*
X1572048Y945618D01*
X1571764Y945334D01*
X1571661Y945283D01*
X1571557Y945180D01*
X1571454Y945128D01*
X1571093Y944922D01*
X1570887Y944870D01*
X1570526Y944818D01*
X1569339Y944767D01*
X1569184Y944818D01*
X1568823Y944767D01*
X1568642Y944586D01*
X1568591Y944225D01*
X1568642Y944019D01*
X1568591Y942110D01*
X1568410Y941929D01*
X1568204Y941878D01*
X1567095Y941852D01*
X1566785Y941903D01*
X1566604Y942032D01*
X1566527Y942265D01*
Y949591D01*
Y949642D01*
X1566579Y951500D01*
X1566759Y951680D01*
X1566966Y951732D01*
X1570680Y951680D01*
D02*
G37*
G36*
X1563302Y951732D02*
X1563457Y951680D01*
X1563793Y951552D01*
X1564309Y951242D01*
X1564386Y951164D01*
X1564489Y951113D01*
X1564618Y950984D01*
X1564670Y950881D01*
X1564773Y950778D01*
X1565083Y950107D01*
X1565186Y949746D01*
X1565237Y949539D01*
X1565289Y948869D01*
X1565341Y947424D01*
X1565289Y944328D01*
X1565237Y944174D01*
X1565186Y943658D01*
X1564670Y942677D01*
X1564386Y942394D01*
X1563767Y942084D01*
X1563741Y942058D01*
X1563457Y941981D01*
X1563251Y941929D01*
X1562425Y941878D01*
X1559588Y941929D01*
X1559433Y941981D01*
X1559098Y942110D01*
X1558401Y942497D01*
X1558195Y942806D01*
X1558117Y942884D01*
X1558066Y942987D01*
X1557963Y943090D01*
X1557859Y943348D01*
X1557808Y943554D01*
X1557730Y943890D01*
X1557679Y944148D01*
X1557627Y944715D01*
X1557576Y945334D01*
X1557550Y948250D01*
X1557601Y948404D01*
X1557653Y949385D01*
X1557705Y949539D01*
X1557756Y950055D01*
X1557859Y950313D01*
X1558066Y950674D01*
X1558324Y951036D01*
X1558375Y951139D01*
X1558943Y951500D01*
X1559381Y951680D01*
X1559588Y951732D01*
X1560568Y951784D01*
X1563302Y951732D01*
D02*
G37*
G36*
X1530334Y951680D02*
X1530489Y951629D01*
X1530773Y951552D01*
X1531392Y951242D01*
X1531572Y951113D01*
X1531701Y950932D01*
X1531856Y950778D01*
X1531908Y950674D01*
X1532063Y950313D01*
X1532166Y949901D01*
X1532217Y949539D01*
X1532269Y948869D01*
X1532295Y948120D01*
X1532191Y947295D01*
X1532140Y947037D01*
X1531985Y946624D01*
X1531779Y946418D01*
X1531676Y946366D01*
X1531495Y946186D01*
X1531443Y946031D01*
X1531624Y945799D01*
X1531727Y945747D01*
X1532011Y945515D01*
X1532114Y945412D01*
X1532166Y945309D01*
X1532372Y944999D01*
X1532475Y944741D01*
X1532527Y944535D01*
X1532553Y942290D01*
X1532501Y942084D01*
X1532346Y941929D01*
X1532140Y941878D01*
X1530592Y941929D01*
X1530515Y942007D01*
X1530412Y942419D01*
X1530463Y942626D01*
X1530412Y943916D01*
X1530205Y944277D01*
X1530102Y944380D01*
X1530050Y944483D01*
X1529870Y944664D01*
X1529509Y944767D01*
X1528270Y944715D01*
X1528193Y944638D01*
X1528141Y944277D01*
X1528193Y943451D01*
X1528141Y943297D01*
X1528193Y942265D01*
X1528012Y941929D01*
X1527961D01*
X1527935Y941903D01*
X1526310Y941878D01*
X1526129Y942058D01*
X1526078Y942265D01*
X1526129Y951500D01*
X1526258Y951680D01*
X1526619Y951732D01*
X1530334Y951680D01*
D02*
G37*
G36*
X1522853Y951732D02*
X1523008Y951680D01*
X1523988Y951164D01*
X1524066Y951087D01*
X1524117Y950984D01*
X1524478Y950468D01*
X1524581Y950210D01*
X1524633Y950004D01*
X1524736Y949385D01*
X1524788Y949023D01*
X1524839Y948507D01*
X1524865Y945696D01*
X1524762Y944251D01*
X1524710Y943838D01*
X1524659Y943580D01*
X1524607Y943374D01*
X1524504Y943116D01*
X1524375Y942935D01*
X1524014Y942471D01*
X1523885Y942342D01*
X1523317Y942084D01*
X1523059Y941981D01*
X1522027Y941878D01*
X1519138Y941929D01*
X1518983Y941981D01*
X1518648Y942110D01*
X1518261Y942290D01*
X1517823Y942626D01*
X1517771Y942729D01*
X1517668Y942832D01*
X1517358Y943503D01*
X1517255Y943864D01*
X1517204Y944070D01*
X1517152Y944896D01*
Y944948D01*
Y944999D01*
X1517100Y945515D01*
X1517152Y949127D01*
X1517204Y949281D01*
X1517281Y949875D01*
X1517332Y950081D01*
X1517436Y950339D01*
X1517668Y950778D01*
X1518003Y951216D01*
X1518106Y951268D01*
X1518416Y951474D01*
X1518880Y951680D01*
X1519087Y951732D01*
X1519912Y951784D01*
X1522853Y951732D01*
D02*
G37*
%LPC*%
G36*
X1569649Y949307D02*
X1569494Y949256D01*
X1569081Y949307D01*
X1568797Y949178D01*
X1568694Y948920D01*
X1568720Y948172D01*
X1568694Y947476D01*
X1568849Y947269D01*
X1568875Y947243D01*
X1569081Y947192D01*
X1570216Y947243D01*
X1570577Y947501D01*
X1570655Y947734D01*
X1570706Y947940D01*
X1570655Y948765D01*
X1570500Y949023D01*
X1570371Y949152D01*
X1570113Y949256D01*
X1569649Y949307D01*
D02*
G37*
G36*
X1529612D02*
X1529122Y949281D01*
X1528838Y949307D01*
X1528786D01*
X1528374Y949256D01*
X1528193Y949127D01*
X1528141Y948765D01*
X1528193Y948043D01*
X1528141Y947888D01*
X1528193Y947372D01*
X1528322Y947243D01*
X1528683Y947192D01*
X1529870Y947243D01*
X1529973Y947347D01*
X1530076Y947398D01*
X1530205Y947682D01*
X1530257Y947888D01*
X1530308Y948353D01*
X1530257Y948507D01*
X1530179Y948843D01*
X1530076Y949101D01*
X1529973Y949204D01*
X1529612Y949307D01*
D02*
G37*
%LPD*%
D10*
X1123950Y938530D02*
G03*
X1123950Y938530I-76200J0D01*
G01*
X756920D02*
G03*
X756920Y938530I-76200J0D01*
G01*
X1160780Y908049D02*
X1181100D01*
X1160780D02*
Y969009D01*
X1181100D01*
Y908049D02*
Y969009D01*
X1170940Y897889D02*
Y908049D01*
Y969009D02*
Y979169D01*
D11*
X1263667Y938563D02*
G03*
X1263667Y938563I-30497J0D01*
G01*
X422840Y838690D02*
X572840D01*
X422840D02*
Y1038690D01*
X572840Y838690D02*
Y1038690D01*
X422840D02*
X572840D01*
X1291520Y1038368D02*
X1441520D01*
Y838368D02*
Y1038368D01*
X1291520Y838368D02*
Y1038368D01*
Y838368D02*
X1441520D01*
X805434Y887730D02*
Y989330D01*
Y887730D02*
X862330D01*
Y989330D01*
X805434D02*
X862330D01*
X855218Y888238D02*
Y989330D01*
X1131567Y825495D02*
X1126488D01*
X1129027D01*
Y812799D01*
X1126488Y810260D01*
X1123949D01*
X1121410Y812799D01*
X1139184Y810260D02*
X1144263D01*
X1146802Y812799D01*
Y817878D01*
X1144263Y820417D01*
X1139184D01*
X1136645Y817878D01*
Y812799D01*
X1139184Y810260D01*
X1151880D02*
Y825495D01*
Y815338D02*
X1159498Y820417D01*
X1151880Y815338D02*
X1159498Y810260D01*
X1169654D02*
X1174733D01*
X1177272Y812799D01*
Y817878D01*
X1174733Y820417D01*
X1169654D01*
X1167115Y817878D01*
Y812799D01*
X1169654Y810260D01*
X379730Y828033D02*
Y817877D01*
X384808Y812798D01*
X389887Y817877D01*
Y828033D01*
X397504Y812798D02*
X402583D01*
X405122Y815338D01*
Y820416D01*
X402583Y822955D01*
X397504D01*
X394965Y820416D01*
Y815338D01*
X397504Y812798D01*
X410200D02*
X415279D01*
X412739D01*
Y828033D01*
X410200D01*
X425435Y825494D02*
Y822955D01*
X422896D01*
X427974D01*
X425435D01*
Y815338D01*
X427974Y812798D01*
X438131Y822955D02*
X443209D01*
X445749Y820416D01*
Y812798D01*
X438131D01*
X435592Y815338D01*
X438131Y817877D01*
X445749D01*
X455905Y807720D02*
X458445D01*
X460984Y810259D01*
Y822955D01*
X453366D01*
X450827Y820416D01*
Y815338D01*
X453366Y812798D01*
X460984D01*
X473680D02*
X468601D01*
X466062Y815338D01*
Y820416D01*
X468601Y822955D01*
X473680D01*
X476219Y820416D01*
Y817877D01*
X466062D01*
X496532Y822955D02*
Y812798D01*
Y817877D01*
X499071Y820416D01*
X501611Y822955D01*
X504150D01*
X519385Y812798D02*
X514306D01*
X511767Y815338D01*
Y820416D01*
X514306Y822955D01*
X519385D01*
X521924Y820416D01*
Y817877D01*
X511767D01*
X532081Y807720D02*
X534620D01*
X537159Y810259D01*
Y822955D01*
X529542D01*
X527002Y820416D01*
Y815338D01*
X529542Y812798D01*
X537159D01*
X542237Y822955D02*
Y815338D01*
X544777Y812798D01*
X552394D01*
Y822955D01*
X557472Y812798D02*
X562551D01*
X560012D01*
Y828033D01*
X557472D01*
X572708Y822955D02*
X577786D01*
X580325Y820416D01*
Y812798D01*
X572708D01*
X570168Y815338D01*
X572708Y817877D01*
X580325D01*
X587943Y825494D02*
Y822955D01*
X585404D01*
X590482D01*
X587943D01*
Y815338D01*
X590482Y812798D01*
X600639D02*
X605717D01*
X608256Y815338D01*
Y820416D01*
X605717Y822955D01*
X600639D01*
X598099Y820416D01*
Y815338D01*
X600639Y812798D01*
X613334Y822955D02*
Y812798D01*
Y817877D01*
X615874Y820416D01*
X618413Y822955D01*
X620952D01*
X1049021Y1038858D02*
X1046482Y1041397D01*
X1041403D01*
X1038864Y1038858D01*
Y1028702D01*
X1041403Y1026162D01*
X1046482D01*
X1049021Y1028702D01*
X1064256Y1026162D02*
X1054099D01*
X1064256Y1036319D01*
Y1038858D01*
X1061717Y1041397D01*
X1056638D01*
X1054099Y1038858D01*
X1460505Y882645D02*
Y872488D01*
X1468123D01*
X1465583Y877567D01*
Y880106D01*
X1468123Y882645D01*
X1473201D01*
X1475740Y880106D01*
Y875028D01*
X1473201Y872488D01*
X1465583Y887723D02*
X1475740Y892802D01*
X1465583Y897880D01*
X1463044Y976625D02*
X1460505Y974086D01*
Y969008D01*
X1463044Y966468D01*
X1473201D01*
X1475740Y969008D01*
Y974086D01*
X1473201Y976625D01*
X1468123D01*
Y971547D01*
X1475740Y981703D02*
X1460505D01*
X1475740Y991860D01*
X1460505D01*
Y996938D02*
X1475740D01*
Y1004556D01*
X1473201Y1007095D01*
X1463044D01*
X1460505Y1004556D01*
Y996938D01*
X401316Y900433D02*
X403855Y902972D01*
Y908051D01*
X401316Y910590D01*
X391159D01*
X388620Y908051D01*
Y902972D01*
X391159Y900433D01*
X396237D01*
Y905512D01*
X388620Y895355D02*
X403855D01*
X388620Y885198D01*
X403855D01*
Y880120D02*
X388620D01*
Y872502D01*
X391159Y869963D01*
X401316D01*
X403855Y872502D01*
Y880120D01*
X391159Y1004570D02*
X388620Y1002031D01*
Y996953D01*
X391159Y994413D01*
X401316D01*
X403855Y996953D01*
Y1002031D01*
X401316Y1004570D01*
X398777D01*
X396237Y1002031D01*
Y994413D01*
X398777Y989335D02*
X388620Y984257D01*
X398777Y979178D01*
X680720Y850898D02*
X678181Y853438D01*
X673102D01*
X670563Y850898D01*
Y840742D01*
X673102Y838203D01*
X678181D01*
X680720Y840742D01*
X685798Y838203D02*
X690877D01*
X688338D01*
Y853438D01*
X685798Y850898D01*
X424190Y1064257D02*
X429269D01*
X426730D01*
Y1049022D01*
X424190D01*
X429269D01*
X436886D02*
Y1059178D01*
X444504D01*
X447043Y1056639D01*
Y1049022D01*
X452121Y1043943D02*
Y1059178D01*
X459739D01*
X462278Y1056639D01*
Y1051561D01*
X459739Y1049022D01*
X452121D01*
X467356Y1059178D02*
Y1051561D01*
X469896Y1049022D01*
X477513D01*
Y1059178D01*
X485131Y1061718D02*
Y1059178D01*
X482591D01*
X487670D01*
X485131D01*
Y1051561D01*
X487670Y1049022D01*
X1294128Y1071751D02*
X1289049D01*
X1286510Y1069212D01*
Y1059055D01*
X1289049Y1056516D01*
X1294128D01*
X1296667Y1059055D01*
Y1069212D01*
X1294128Y1071751D01*
X1301745Y1066673D02*
Y1059055D01*
X1304284Y1056516D01*
X1311902D01*
Y1066673D01*
X1319519Y1069212D02*
Y1066673D01*
X1316980D01*
X1322059D01*
X1319519D01*
Y1059055D01*
X1322059Y1056516D01*
X1329676Y1051438D02*
Y1066673D01*
X1337294D01*
X1339833Y1064134D01*
Y1059055D01*
X1337294Y1056516D01*
X1329676D01*
X1344911Y1066673D02*
Y1059055D01*
X1347450Y1056516D01*
X1355068D01*
Y1066673D01*
X1362685Y1069212D02*
Y1066673D01*
X1360146D01*
X1365224D01*
X1362685D01*
Y1059055D01*
X1365224Y1056516D01*
X794004Y1078988D02*
Y1063752D01*
X804161D01*
X809239D02*
Y1078988D01*
X814317Y1073909D01*
X819396Y1078988D01*
Y1063752D01*
X824474Y1078988D02*
X834631D01*
Y1076448D01*
X824474Y1066292D01*
Y1063752D01*
X839709Y1076448D02*
X842248Y1078988D01*
X847327D01*
X849866Y1076448D01*
Y1073909D01*
X847327Y1071370D01*
X849866Y1068831D01*
Y1066292D01*
X847327Y1063752D01*
X842248D01*
X839709Y1066292D01*
Y1068831D01*
X842248Y1071370D01*
X839709Y1073909D01*
Y1076448D01*
X842248Y1071370D02*
X847327D01*
X854944Y1076448D02*
X857484Y1078988D01*
X862562D01*
X865101Y1076448D01*
Y1066292D01*
X862562Y1063752D01*
X857484D01*
X854944Y1066292D01*
Y1076448D01*
X880336Y1078988D02*
X870179D01*
Y1071370D01*
X875258Y1073909D01*
X877797D01*
X880336Y1071370D01*
Y1066292D01*
X877797Y1063752D01*
X872719D01*
X870179Y1066292D01*
X1160272Y1005078D02*
Y1020313D01*
X1167889D01*
X1170429Y1017774D01*
Y1012695D01*
X1167889Y1010156D01*
X1160272D01*
X1165350D02*
X1170429Y1005078D01*
X1175507D02*
X1180585D01*
X1178046D01*
Y1020313D01*
X1175507Y1017774D01*
X1203960Y993135D02*
Y977900D01*
X1214117D01*
X1229352Y993135D02*
X1219195D01*
Y977900D01*
X1229352D01*
X1219195Y985518D02*
X1224273D01*
X1234430Y993135D02*
Y977900D01*
X1242048D01*
X1244587Y980439D01*
Y990596D01*
X1242048Y993135D01*
X1234430D01*
X1249665Y977900D02*
X1254744D01*
X1252204D01*
Y993135D01*
X1249665Y990596D01*
D12*
X1047880Y857211D02*
Y847214D01*
X1052878Y852213D02*
X1042881D01*
X680590Y1019849D02*
Y1029846D01*
X675592Y1024847D02*
X685589D01*
M02*
