G04*
G04 #@! TF.GenerationSoftware,Altium Limited,Altium Designer,21.6.4 (81)*
G04*
G04 Layer_Physical_Order=2*
G04 Layer_Color=16711680*
%FSLAX44Y44*%
%MOMM*%
G71*
G04*
G04 #@! TF.SameCoordinates,9B3D00D5-71B9-47E7-A398-83BAF539578A*
G04*
G04*
G04 #@! TF.FilePolarity,Positive*
G04*
G01*
G75*
%ADD21R,1.4000X1.4000*%
%ADD22C,1.4000*%
%ADD23C,6.0000*%
%ADD24O,3.5560X2.0320*%
%ADD25R,3.5560X2.0320*%
%ADD26C,1.5240*%
%ADD27R,1.5240X1.5240*%
%ADD28C,4.0000*%
%ADD29C,0.7620*%
G36*
X1579880Y1089660D02*
Y800100D01*
X281940D01*
X280670Y801370D01*
X281940Y1090930D01*
X1578610D01*
X1579880Y1089660D01*
D02*
G37*
%LPC*%
G36*
X1550350Y1081720D02*
X1545910D01*
X1541555Y1080854D01*
X1537453Y1079155D01*
X1533762Y1076688D01*
X1530622Y1073548D01*
X1528155Y1069857D01*
X1526456Y1065755D01*
X1525590Y1061400D01*
Y1056960D01*
X1526456Y1052605D01*
X1528155Y1048503D01*
X1530622Y1044812D01*
X1533762Y1041672D01*
X1537453Y1039205D01*
X1541555Y1037506D01*
X1545910Y1036640D01*
X1550350D01*
X1554705Y1037506D01*
X1558807Y1039205D01*
X1562498Y1041672D01*
X1565638Y1044812D01*
X1568105Y1048503D01*
X1569804Y1052605D01*
X1570670Y1056960D01*
Y1061400D01*
X1569804Y1065755D01*
X1568105Y1069857D01*
X1565638Y1073548D01*
X1562498Y1076688D01*
X1558807Y1079155D01*
X1554705Y1080854D01*
X1550350Y1081720D01*
D02*
G37*
G36*
X317180D02*
X312740D01*
X308385Y1080854D01*
X304283Y1079155D01*
X300592Y1076688D01*
X297452Y1073548D01*
X294985Y1069857D01*
X293286Y1065755D01*
X292420Y1061400D01*
Y1056960D01*
X293286Y1052605D01*
X294985Y1048503D01*
X297452Y1044812D01*
X300592Y1041672D01*
X304283Y1039205D01*
X308385Y1037506D01*
X312740Y1036640D01*
X317180D01*
X321535Y1037506D01*
X325637Y1039205D01*
X329328Y1041672D01*
X332468Y1044812D01*
X334935Y1048503D01*
X336634Y1052605D01*
X337500Y1056960D01*
Y1061400D01*
X336634Y1065755D01*
X334935Y1069857D01*
X332468Y1073548D01*
X329328Y1076688D01*
X325637Y1079155D01*
X321535Y1080854D01*
X317180Y1081720D01*
D02*
G37*
G36*
X1172210Y998865D02*
Y990599D01*
X1180476D01*
X1179830Y993011D01*
X1178574Y995187D01*
X1176798Y996963D01*
X1174622Y998219D01*
X1172210Y998865D01*
D02*
G37*
G36*
X1169670D02*
X1167258Y998219D01*
X1165082Y996963D01*
X1163306Y995187D01*
X1162050Y993011D01*
X1161404Y990599D01*
X1169670D01*
Y998865D01*
D02*
G37*
G36*
X1369081Y1020908D02*
X1367790D01*
Y989638D01*
X1399060D01*
Y990929D01*
X1398259Y995988D01*
X1396676Y1000859D01*
X1394351Y1005423D01*
X1391340Y1009567D01*
X1387718Y1013188D01*
X1383575Y1016199D01*
X1379011Y1018524D01*
X1374140Y1020107D01*
X1369081Y1020908D01*
D02*
G37*
G36*
X1365250D02*
X1363959D01*
X1358900Y1020107D01*
X1354029Y1018524D01*
X1349465Y1016199D01*
X1345322Y1013188D01*
X1341700Y1009567D01*
X1338689Y1005423D01*
X1336364Y1000859D01*
X1334781Y995988D01*
X1333980Y990929D01*
Y989638D01*
X1365250D01*
Y1020908D01*
D02*
G37*
G36*
X1180476Y988059D02*
X1172210D01*
Y979793D01*
X1174622Y980439D01*
X1176798Y981695D01*
X1178574Y983472D01*
X1179830Y985647D01*
X1180476Y988059D01*
D02*
G37*
G36*
X1169670D02*
X1161404D01*
X1162050Y985647D01*
X1163306Y983472D01*
X1165082Y981695D01*
X1167258Y980439D01*
X1169670Y979793D01*
Y988059D01*
D02*
G37*
G36*
X1049020Y986166D02*
Y977900D01*
X1057286D01*
X1056640Y980312D01*
X1055384Y982488D01*
X1053608Y984264D01*
X1051432Y985520D01*
X1049020Y986166D01*
D02*
G37*
G36*
X1046480D02*
X1044068Y985520D01*
X1041892Y984264D01*
X1040116Y982488D01*
X1038860Y980312D01*
X1038214Y977900D01*
X1046480D01*
Y986166D01*
D02*
G37*
G36*
X1057286Y975360D02*
X1049020D01*
Y967094D01*
X1051432Y967740D01*
X1053608Y968996D01*
X1055384Y970772D01*
X1056640Y972948D01*
X1057286Y975360D01*
D02*
G37*
G36*
X1046480D02*
X1038214D01*
X1038860Y972948D01*
X1040116Y970772D01*
X1041892Y968996D01*
X1044068Y967740D01*
X1046480Y967094D01*
Y975360D01*
D02*
G37*
G36*
X1399060Y987098D02*
X1367790D01*
Y955828D01*
X1369081D01*
X1374140Y956629D01*
X1379011Y958212D01*
X1383575Y960538D01*
X1387718Y963548D01*
X1391340Y967170D01*
X1394351Y971314D01*
X1396676Y975877D01*
X1398259Y980749D01*
X1399060Y985807D01*
Y987098D01*
D02*
G37*
G36*
X1365250D02*
X1333980D01*
Y985807D01*
X1334781Y980749D01*
X1336364Y975877D01*
X1338689Y971314D01*
X1341700Y967170D01*
X1345322Y963548D01*
X1349465Y960538D01*
X1354029Y958212D01*
X1358900Y956629D01*
X1363959Y955828D01*
X1365250D01*
Y987098D01*
D02*
G37*
G36*
X500401Y1021230D02*
X495279D01*
X490220Y1020429D01*
X485349Y1018846D01*
X480785Y1016521D01*
X476642Y1013510D01*
X473020Y1009889D01*
X470009Y1005745D01*
X467684Y1001181D01*
X466101Y996310D01*
X465300Y991251D01*
Y986129D01*
X466101Y981070D01*
X467684Y976199D01*
X470009Y971635D01*
X473020Y967492D01*
X476642Y963870D01*
X480785Y960859D01*
X485349Y958534D01*
X490220Y956951D01*
X495279Y956150D01*
X500401D01*
X505460Y956951D01*
X510331Y958534D01*
X514895Y960859D01*
X519038Y963870D01*
X522660Y967492D01*
X525671Y971635D01*
X527996Y976199D01*
X529579Y981070D01*
X529760Y982216D01*
X665978D01*
X671180Y977014D01*
Y967090D01*
X690260D01*
Y970156D01*
X808341D01*
X811530Y966966D01*
Y950722D01*
X818385D01*
X818638Y949452D01*
X817825Y949116D01*
X815172Y947080D01*
X813137Y944427D01*
X811857Y941338D01*
X811588Y939292D01*
X852112D01*
X851843Y941338D01*
X850563Y944427D01*
X848528Y947080D01*
X845875Y949116D01*
X845062Y949452D01*
X845315Y950722D01*
X852170D01*
Y976122D01*
X820686D01*
X815601Y981208D01*
X813500Y982612D01*
X811022Y983104D01*
X690260D01*
Y986170D01*
X680336D01*
X673238Y993268D01*
X671137Y994672D01*
X668660Y995164D01*
X529760D01*
X529579Y996310D01*
X527996Y1001181D01*
X525671Y1005745D01*
X522660Y1009889D01*
X519038Y1013510D01*
X514895Y1016521D01*
X510331Y1018846D01*
X505460Y1020429D01*
X500401Y1021230D01*
D02*
G37*
G36*
X681990Y909966D02*
Y901700D01*
X690256D01*
X689610Y904112D01*
X688354Y906288D01*
X686578Y908064D01*
X684402Y909320D01*
X681990Y909966D01*
D02*
G37*
G36*
X679450D02*
X677038Y909320D01*
X674862Y908064D01*
X673086Y906288D01*
X671830Y904112D01*
X671184Y901700D01*
X679450D01*
Y909966D01*
D02*
G37*
G36*
X1234508Y936006D02*
X1231832D01*
X1229248Y935314D01*
X1226932Y933976D01*
X1225040Y932085D01*
X1223702Y929768D01*
X1223010Y927184D01*
Y924842D01*
X1192371Y894204D01*
X1177957D01*
X1176798Y895363D01*
X1174622Y896619D01*
X1172196Y897269D01*
X1169684D01*
X1167258Y896619D01*
X1165082Y895363D01*
X1163306Y893587D01*
X1162050Y891412D01*
X1161400Y888985D01*
Y886473D01*
X1162050Y884047D01*
X1163306Y881871D01*
X1165082Y880095D01*
X1167258Y878839D01*
X1169684Y878189D01*
X1172196D01*
X1174622Y878839D01*
X1176798Y880095D01*
X1177957Y881255D01*
X1195053D01*
X1197531Y881748D01*
X1199631Y883151D01*
X1232166Y915686D01*
X1234508D01*
X1237092Y916378D01*
X1239408Y917716D01*
X1241300Y919608D01*
X1242638Y921925D01*
X1243330Y924509D01*
Y927184D01*
X1242638Y929768D01*
X1241300Y932085D01*
X1239408Y933976D01*
X1237092Y935314D01*
X1234508Y936006D01*
D02*
G37*
G36*
X690256Y899160D02*
X681990D01*
Y890894D01*
X684402Y891540D01*
X686578Y892796D01*
X688354Y894572D01*
X689610Y896748D01*
X690256Y899160D01*
D02*
G37*
G36*
X679450D02*
X671184D01*
X671830Y896748D01*
X673086Y894572D01*
X674862Y892796D01*
X677038Y891540D01*
X679450Y890894D01*
Y899160D01*
D02*
G37*
G36*
X500401Y921230D02*
X499110D01*
Y889960D01*
X530380D01*
Y891251D01*
X529579Y896310D01*
X527996Y901181D01*
X525671Y905745D01*
X522660Y909889D01*
X519038Y913510D01*
X514895Y916521D01*
X510331Y918846D01*
X505460Y920429D01*
X500401Y921230D01*
D02*
G37*
G36*
X496570D02*
X495279D01*
X490220Y920429D01*
X485349Y918846D01*
X480785Y916521D01*
X476642Y913510D01*
X473020Y909889D01*
X470009Y905745D01*
X467684Y901181D01*
X466101Y896310D01*
X465300Y891251D01*
Y889960D01*
X496570D01*
Y921230D01*
D02*
G37*
G36*
X530380Y887420D02*
X499110D01*
Y856150D01*
X500401D01*
X505460Y856951D01*
X510331Y858534D01*
X514895Y860859D01*
X519038Y863870D01*
X522660Y867492D01*
X525671Y871635D01*
X527996Y876199D01*
X529579Y881070D01*
X530380Y886129D01*
Y887420D01*
D02*
G37*
G36*
X496570D02*
X465300D01*
Y886129D01*
X466101Y881070D01*
X467684Y876199D01*
X470009Y871635D01*
X473020Y867492D01*
X476642Y863870D01*
X480785Y860859D01*
X485349Y858534D01*
X490220Y856951D01*
X495279Y856150D01*
X496570D01*
Y887420D01*
D02*
G37*
G36*
X1243330Y961406D02*
X1223010D01*
Y957720D01*
X1167463D01*
X1164985Y957228D01*
X1162885Y955824D01*
X1113965Y906904D01*
X1057290D01*
Y909970D01*
X1047366D01*
X1040136Y917200D01*
X1038035Y918604D01*
X1035558Y919097D01*
X850510D01*
X848528Y921680D01*
X845875Y923716D01*
X843655Y924635D01*
Y926010D01*
X845875Y926929D01*
X848528Y928965D01*
X850563Y931618D01*
X851843Y934707D01*
X852112Y936752D01*
X811588D01*
X811857Y934707D01*
X813137Y931618D01*
X815172Y928965D01*
X817825Y926929D01*
X820044Y926010D01*
Y924635D01*
X817825Y923716D01*
X815172Y921680D01*
X813137Y919027D01*
X811857Y915938D01*
X811420Y912622D01*
X811857Y909307D01*
X813137Y906218D01*
X815172Y903565D01*
X817825Y901529D01*
X820915Y900249D01*
X824230Y899813D01*
X839470D01*
X842785Y900249D01*
X845875Y901529D01*
X848528Y903565D01*
X850510Y906148D01*
X1032876D01*
X1038210Y900814D01*
Y890890D01*
X1057290D01*
Y893956D01*
X1116647D01*
X1119125Y894448D01*
X1121225Y895852D01*
X1170145Y944772D01*
X1223010D01*
Y941086D01*
X1243330D01*
Y944772D01*
X1300960D01*
X1339371Y906361D01*
X1338689Y905423D01*
X1336364Y900859D01*
X1334781Y895988D01*
X1333980Y890929D01*
Y885807D01*
X1334781Y880749D01*
X1336364Y875877D01*
X1338689Y871314D01*
X1341700Y867170D01*
X1345322Y863548D01*
X1349465Y860538D01*
X1354029Y858212D01*
X1358900Y856629D01*
X1363959Y855828D01*
X1369081D01*
X1374140Y856629D01*
X1379011Y858212D01*
X1383575Y860538D01*
X1387718Y863548D01*
X1391340Y867170D01*
X1394351Y871314D01*
X1396676Y875877D01*
X1398259Y880749D01*
X1399060Y885807D01*
Y890929D01*
X1398259Y895988D01*
X1396676Y900859D01*
X1394351Y905423D01*
X1391340Y909567D01*
X1387718Y913188D01*
X1383575Y916199D01*
X1379011Y918524D01*
X1374140Y920107D01*
X1369081Y920908D01*
X1363959D01*
X1358900Y920107D01*
X1354029Y918524D01*
X1349465Y916199D01*
X1348527Y915517D01*
X1308220Y955824D01*
X1306120Y957228D01*
X1303642Y957720D01*
X1243330D01*
Y961406D01*
D02*
G37*
G36*
X1550350Y854390D02*
X1545910D01*
X1541555Y853524D01*
X1537453Y851825D01*
X1533762Y849358D01*
X1530622Y846218D01*
X1528155Y842527D01*
X1526456Y838425D01*
X1525590Y834070D01*
Y829630D01*
X1526456Y825275D01*
X1528155Y821173D01*
X1530622Y817482D01*
X1533762Y814342D01*
X1537453Y811875D01*
X1541555Y810176D01*
X1545910Y809310D01*
X1550350D01*
X1554705Y810176D01*
X1558807Y811875D01*
X1562498Y814342D01*
X1565638Y817482D01*
X1568105Y821173D01*
X1569804Y825275D01*
X1570670Y829630D01*
Y834070D01*
X1569804Y838425D01*
X1568105Y842527D01*
X1565638Y846218D01*
X1562498Y849358D01*
X1558807Y851825D01*
X1554705Y853524D01*
X1550350Y854390D01*
D02*
G37*
G36*
X317180D02*
X312740D01*
X308385Y853524D01*
X304283Y851825D01*
X300592Y849358D01*
X297452Y846218D01*
X294985Y842527D01*
X293286Y838425D01*
X292420Y834070D01*
Y829630D01*
X293286Y825275D01*
X294985Y821173D01*
X297452Y817482D01*
X300592Y814342D01*
X304283Y811875D01*
X308385Y810176D01*
X312740Y809310D01*
X317180D01*
X321535Y810176D01*
X325637Y811875D01*
X329328Y814342D01*
X332468Y817482D01*
X334935Y821173D01*
X336634Y825275D01*
X337500Y829630D01*
Y834070D01*
X336634Y838425D01*
X334935Y842527D01*
X332468Y846218D01*
X329328Y849358D01*
X325637Y851825D01*
X321535Y853524D01*
X317180Y854390D01*
D02*
G37*
%LPD*%
D21*
X1047750Y900430D02*
D03*
X680720Y976630D02*
D03*
D22*
X1047750D02*
D03*
X680720Y900430D02*
D03*
X1170940Y887729D02*
D03*
Y989329D02*
D03*
D23*
X497840Y988690D02*
D03*
Y888690D02*
D03*
X1366520Y888368D02*
D03*
Y988368D02*
D03*
D24*
X831850Y912622D02*
D03*
Y938022D02*
D03*
D25*
Y963422D02*
D03*
D26*
X1233170Y925846D02*
D03*
D27*
Y951246D02*
D03*
D28*
X1548130Y831850D02*
D03*
Y1059180D02*
D03*
X314960D02*
D03*
Y831850D02*
D03*
D29*
X680720Y976630D02*
X811022D01*
X824230Y963422D01*
X831850Y912622D02*
X1035558D01*
X668660Y988690D02*
X680720Y976630D01*
X824230Y963422D02*
X831850D01*
X497840Y988690D02*
X668660D01*
X1303642Y951246D02*
X1366520Y888368D01*
X1233170Y951246D02*
X1303642D01*
X1170940Y887729D02*
X1195053D01*
X1233170Y925846D01*
X1047750Y900430D02*
X1116647D01*
X1167463Y951246D01*
X1233170D01*
X1035558Y912622D02*
X1047750Y900430D01*
M02*
